<?xml version="1.0" encoding="utf-8"?>
<!-- Generator: Adobe Illustrator 28.4.1, SVG Export Plug-In . SVG Version: 6.00 Build 0)  -->
<svg version="1.0" id="Layer_1" xmlns="http://www.w3.org/2000/svg" xmlns:xlink="http://www.w3.org/1999/xlink" x="0px" y="0px"
	 viewBox="0 0 418 312" style="enable-background:new 0 0 418 312;" xml:space="preserve">
<style type="text/css">
	.st0{fill:#FFFFFF;}
</style>
<g>
	<path class="st0" d="M183.37,126.81c0-24.88-20.24-45.12-45.13-45.12c-14.82,0-28,7.19-36.24,18.26
		c-8.23-11.07-21.41-18.26-36.23-18.26c-24.89,0-45.13,20.24-45.13,45.13v32.3c0,4.91,3.98,8.9,8.9,8.9c4.92,0,8.9-3.98,8.9-8.9
		v-32.3c0-15.07,12.26-27.33,27.33-27.33c15.07,0,27.33,12.26,27.33,27.33v32.3v37.4c0,4.91,3.98,8.91,8.9,8.91
		c4.91,0,8.9-3.99,8.9-8.91v-37.4v-32.3c0-15.07,12.26-27.33,27.34-27.33c15.07,0,27.33,12.26,27.33,27.33v32.3v37.4
		c0,4.91,3.98,8.91,8.9,8.91c4.91,0,8.9-3.99,8.9-8.91v-37.4L183.37,126.81C183.37,126.81,183.37,126.81,183.37,126.81z"/>
	<circle class="st0" cx="30.55" cy="186.37" r="7.62"/>
	<g>
		<path class="st0" d="M208.91,146.77c0-29.82,19.67-57.16,50.74-57.16c30.86,0,49.08,25.89,49.08,54.26
			c0,7.87-3.93,10.98-11.8,10.98H231.9c1.04,17.61,13.05,30.24,30.24,30.24c9.94,0,18.02-3.11,27.75-10.98
			c3.11-2.28,5.8-3.52,8.08-3.52c5.39,0,9.11,3.93,9.11,9.32c0,4.14-3.11,8.7-8.08,12.43c-8.49,6.42-22.78,11.6-37.69,11.6
			C228.79,203.93,208.91,179.28,208.91,146.77z M286.57,138.9c-0.83-17.81-12.22-31.27-27.34-31.27c-14.91,0-26.3,13.25-27.34,31.27
			H286.57z"/>
		<path class="st0" d="M340.42,191.3v-80.77h-7.04c-7.25,0-10.77-3.73-10.77-9.53c0-5.8,3.52-9.32,10.36-9.32h7.46V68.07
			c0-14.71,9.32-25.89,24.02-25.89h14.17c8.08,0,13.46,3.73,13.46,9.73s-3.31,9.73-10.36,9.73H369c-4.56,0-7.25,3.31-7.25,8.28
			v21.75h12.01c5.59,0,9.94,3.31,9.94,9.32c0,6.21-4.35,9.53-9.94,9.53h-12.01v80.77c0,6.83-4.14,11.8-10.77,11.8
			C344.56,203.1,340.42,198.13,340.42,191.3z"/>
	</g>
	<g>
		<path class="st0" d="M42.44,229.34c1.81,1.77,2.72,4.39,2.72,7.87v13.62h-6.9v-12.56c0-1.89-0.41-3.29-1.24-4.22
			c-0.83-0.93-2.02-1.39-3.58-1.39c-1.74,0-3.12,0.54-4.16,1.61c-1.03,1.08-1.55,2.68-1.55,4.8v11.76h-6.9v-23.79h6.59v2.79
			c0.91-1,2.05-1.78,3.41-2.32c1.36-0.54,2.85-0.82,4.47-0.82C38.25,226.69,40.63,227.57,42.44,229.34z"/>
		<path class="st0" d="M82.49,227.04v23.79h-6.55V248c-0.91,1.03-2,1.82-3.27,2.37c-1.27,0.55-2.64,0.82-4.11,0.82
			c-3.13,0-5.6-0.9-7.43-2.7c-1.83-1.8-2.74-4.47-2.74-8.01v-13.45h6.9v12.43c0,3.83,1.61,5.75,4.82,5.75
			c1.65,0,2.98-0.54,3.98-1.61c1-1.08,1.5-2.68,1.5-4.8v-11.76H82.49z"/>
		<path class="st0" d="M111.37,249.68c-0.68,0.5-1.51,0.88-2.5,1.13c-0.99,0.25-2.03,0.38-3.12,0.38c-2.83,0-5.02-0.72-6.57-2.17
			c-1.55-1.44-2.32-3.57-2.32-6.37v-9.77h-3.67v-5.31h3.67v-5.79h6.9v5.79h5.93v5.31h-5.93v9.69c0,1,0.26,1.78,0.77,2.32
			s1.25,0.82,2.19,0.82c1.09,0,2.02-0.29,2.79-0.88L111.37,249.68z"/>
		<path class="st0" d="M132.31,227.57c1.4-0.59,3.01-0.88,4.84-0.88v6.37c-0.77-0.06-1.28-0.09-1.55-0.09
			c-1.98,0-3.52,0.55-4.64,1.66c-1.12,1.11-1.68,2.76-1.68,4.98v11.23h-6.9v-23.79h6.59v3.14
			C129.8,229.03,130.91,228.16,132.31,227.57z"/>
		<path class="st0" d="M148.74,222.62c-0.79-0.74-1.19-1.65-1.19-2.74s0.4-2,1.19-2.74c0.8-0.74,1.83-1.11,3.1-1.11
			c1.27,0,2.3,0.35,3.1,1.06c0.8,0.71,1.19,1.59,1.19,2.65c0,1.15-0.4,2.1-1.19,2.85s-1.83,1.13-3.1,1.13
			C150.57,223.72,149.54,223.36,148.74,222.62z M148.39,227.04h6.9v23.79h-6.9V227.04z"/>
		<path class="st0" d="M190.47,250.24c-1.72-0.55-3.07-1.23-4.05-2.06l1.42-2.48c0.97,0.77,2.2,1.39,3.67,1.88s3.01,0.73,4.6,0.73
			c2.12,0,3.69-0.33,4.71-1c1.02-0.66,1.53-1.6,1.53-2.81c0-0.86-0.28-1.53-0.84-2.01c-0.56-0.49-1.27-0.85-2.12-1.11
			c-0.86-0.25-1.99-0.49-3.41-0.73c-1.89-0.35-3.41-0.71-4.55-1.08c-1.15-0.37-2.13-1-2.94-1.88c-0.81-0.88-1.22-2.11-1.22-3.67
			c0-1.95,0.81-3.54,2.43-4.78c1.62-1.24,3.88-1.86,6.77-1.86c1.5,0,3.01,0.2,4.51,0.6c1.5,0.4,2.74,0.92,3.71,1.57l-1.37,2.52
			c-1.92-1.33-4.2-1.99-6.86-1.99c-2,0-3.52,0.35-4.53,1.06c-1.02,0.71-1.53,1.64-1.53,2.79c0,0.88,0.29,1.59,0.86,2.12
			c0.58,0.53,1.29,0.92,2.15,1.17c0.85,0.25,2.03,0.51,3.54,0.77c1.86,0.35,3.35,0.71,4.47,1.06c1.12,0.35,2.08,0.96,2.88,1.81
			c0.8,0.86,1.19,2.03,1.19,3.54c0,2.03-0.85,3.65-2.54,4.84c-1.7,1.19-4.05,1.79-7.05,1.79C194,251.06,192.2,250.78,190.47,250.24z
			"/>
		<path class="st0" d="M221.87,249.55c-1.81-1-3.24-2.41-4.27-4.22c-1.03-1.81-1.55-3.86-1.55-6.13s0.52-4.3,1.55-6.1
			c1.03-1.8,2.45-3.2,4.27-4.2c1.81-1,3.87-1.5,6.17-1.5c2,0,3.79,0.39,5.37,1.17c1.58,0.78,2.82,1.92,3.74,3.43l-2.34,1.59
			c-0.77-1.15-1.74-2.01-2.92-2.59c-1.18-0.58-2.46-0.86-3.85-0.86c-1.68,0-3.19,0.38-4.53,1.13c-1.34,0.75-2.39,1.82-3.14,3.21
			c-0.75,1.39-1.13,2.96-1.13,4.73c0,1.8,0.38,3.38,1.13,4.75s1.8,2.43,3.14,3.18c1.34,0.75,2.85,1.13,4.53,1.13
			c1.38,0,2.67-0.28,3.85-0.84c1.18-0.56,2.15-1.42,2.92-2.57l2.34,1.59c-0.91,1.5-2.17,2.65-3.76,3.43
			c-1.59,0.78-3.38,1.17-5.35,1.17C225.74,251.06,223.69,250.55,221.87,249.55z"/>
		<path class="st0" d="M250.38,221.82c-0.44-0.44-0.66-0.97-0.66-1.59c0-0.59,0.22-1.11,0.66-1.55s0.99-0.66,1.64-0.66
			s1.19,0.21,1.64,0.64c0.44,0.43,0.66,0.94,0.66,1.53c0,0.65-0.22,1.19-0.66,1.64s-0.99,0.66-1.64,0.66
			S250.82,222.26,250.38,221.82z M250.42,227.57h3.14v23.26h-3.14V227.57z"/>
		<path class="st0" d="M289.7,240.18h-19.46c0.18,2.42,1.11,4.37,2.79,5.86c1.68,1.49,3.8,2.23,6.37,2.23
			c1.44,0,2.77-0.26,3.98-0.77c1.21-0.52,2.25-1.28,3.14-2.28l1.77,2.04c-1.03,1.24-2.32,2.18-3.87,2.83
			c-1.55,0.65-3.25,0.97-5.11,0.97c-2.39,0-4.5-0.51-6.35-1.53s-3.28-2.42-4.31-4.22c-1.03-1.8-1.55-3.83-1.55-6.1
			s0.49-4.3,1.48-6.1c0.99-1.8,2.34-3.2,4.07-4.2s3.66-1.5,5.82-1.5c2.15,0,4.08,0.5,5.79,1.5s3.05,2.4,4.03,4.18
			c0.97,1.79,1.46,3.83,1.46,6.13L289.7,240.18z M272.82,232.24c-1.52,1.43-2.38,3.29-2.59,5.59h16.5c-0.21-2.3-1.07-4.16-2.59-5.59
			c-1.52-1.43-3.41-2.15-5.68-2.15C276.22,230.09,274.34,230.81,272.82,232.24z"/>
		<path class="st0" d="M322.09,229.94c1.72,1.7,2.59,4.17,2.59,7.41v13.49h-3.14v-13.18c0-2.42-0.6-4.26-1.81-5.53
			s-2.93-1.9-5.17-1.9c-2.51,0-4.49,0.75-5.95,2.23c-1.46,1.49-2.19,3.55-2.19,6.17v12.21h-3.14v-23.26h3.01v4.29
			c0.86-1.42,2.04-2.51,3.56-3.29s3.28-1.17,5.29-1.17C318.05,227.39,320.37,228.24,322.09,229.94z"/>
		<path class="st0" d="M343.9,249.55c-1.81-1-3.24-2.41-4.27-4.22c-1.03-1.81-1.55-3.86-1.55-6.13s0.52-4.3,1.55-6.1
			c1.03-1.8,2.46-3.2,4.27-4.2s3.87-1.5,6.17-1.5c2,0,3.8,0.39,5.37,1.17s2.82,1.92,3.74,3.43l-2.34,1.59
			c-0.77-1.15-1.74-2.01-2.92-2.59c-1.18-0.58-2.46-0.86-3.85-0.86c-1.68,0-3.19,0.38-4.53,1.13c-1.34,0.75-2.39,1.82-3.14,3.21
			c-0.75,1.39-1.13,2.96-1.13,4.73c0,1.8,0.38,3.38,1.13,4.75s1.8,2.43,3.14,3.18c1.34,0.75,2.85,1.13,4.53,1.13
			c1.38,0,2.67-0.28,3.85-0.84c1.18-0.56,2.15-1.42,2.92-2.57l2.34,1.59c-0.91,1.5-2.17,2.65-3.76,3.43
			c-1.59,0.78-3.38,1.17-5.35,1.17C347.77,251.06,345.71,250.55,343.9,249.55z"/>
		<path class="st0" d="M392.3,240.18h-19.46c0.18,2.42,1.11,4.37,2.79,5.86c1.68,1.49,3.8,2.23,6.37,2.23
			c1.44,0,2.77-0.26,3.98-0.77c1.21-0.52,2.25-1.28,3.14-2.28l1.77,2.04c-1.03,1.24-2.32,2.18-3.87,2.83
			c-1.55,0.65-3.25,0.97-5.11,0.97c-2.39,0-4.5-0.51-6.35-1.53s-3.28-2.42-4.31-4.22c-1.03-1.8-1.55-3.83-1.55-6.1
			s0.49-4.3,1.48-6.1c0.99-1.8,2.34-3.2,4.07-4.2s3.66-1.5,5.82-1.5c2.15,0,4.08,0.5,5.79,1.5s3.05,2.4,4.03,4.18
			c0.97,1.79,1.46,3.83,1.46,6.13L392.3,240.18z M375.43,232.24c-1.52,1.43-2.38,3.29-2.59,5.59h16.5c-0.21-2.3-1.07-4.16-2.59-5.59
			c-1.52-1.43-3.41-2.15-5.68-2.15C378.83,230.09,376.95,230.81,375.43,232.24z"/>
	</g>
	<path class="st0" d="M245.89,285.76c-5.83-0.08-11.71-0.23-17.49-0.46c-9.29-0.38-18.56-0.96-27.53-1.74
		c-4.67-0.41-9.23-0.86-13.54-1.34c-4.39-0.49-8.87-1.05-13.33-1.68l-6.42-0.92c-1.79-0.26-3.59-0.5-5.38-0.74l-0.98-0.13
		c-1.42-0.19-2.83-0.38-4.25-0.56l-2.14-0.28c-2.1-0.28-4.22-0.54-6.34-0.8c-1.84-0.23-3.61-0.44-5.38-0.65l-1.14-0.13
		c-1.52-0.18-3.05-0.35-4.58-0.52l-8.38-0.9c-2.16-0.22-4.34-0.43-6.52-0.64c-10.22-0.94-18.59-1.57-26.32-1.99
		c-4.17-0.24-8.52-0.43-13.3-0.59l-3.34-0.1l-6.68-0.12l-3.33-0.03c-9.75-0.04-18.47,0.24-26.66,0.84
		c-4.55,0.33-8.95,0.76-13.06,1.29l-1.62,0.21l-2.39,0.34l-0.78,0.12c-0.12,0.02-0.27,0.03-0.42,0.02c-0.31,0-0.66-0.05-0.87-0.17
		l-2.26-1.25c-0.47-0.26-0.71-0.72-0.61-1.17c0.1-0.45,0.51-0.81,1.05-0.93l2.02-0.4l2.47-0.45c0,0,2.66-0.45,3.16-0.53l1.87-0.29
		l2.53-0.36l2.56-0.33l3.44-0.41l1.71-0.18c8.6-0.9,18-1.46,27.94-1.65c4.98-0.1,9.56-0.12,14-0.07l5.22,0.08l5.22,0.13l3.47,0.12
		c0.87,0.03,1.74,0.06,2.61,0.1c0,0,3.52,0.15,4.32,0.19l1.31,0.07c1.86,0.09,3.72,0.19,5.57,0.31c4.76,0.27,9.54,0.63,13.65,0.94
		c2.27,0.19,4.52,0.37,6.77,0.57l3.73,0.34c1.01,0.09,2.02,0.18,3.02,0.28l2.02,0.2c1.56,0.15,3.12,0.31,4.67,0.48l1.74,0.19
		c1.64,0.18,3.28,0.35,4.92,0.54l0.97,0.11c1.89,0.21,3.78,0.43,5.66,0.66c2.2,0.26,4.4,0.53,6.58,0.82l1.4,0.18
		c1.72,0.22,3.44,0.45,5.15,0.68l6.45,0.88c2.09,0.28,4.2,0.55,6.32,0.8c2.11,0.26,4.24,0.5,6.38,0.73
		c4.37,0.47,8.72,0.9,12.93,1.26c8.59,0.74,17.44,1.31,26.31,1.7c7.01,0.31,14.05,0.52,20.9,0.6c1.93,0.02,3.86,0.04,5.79,0.05
		c18.34,0.1,36.32-0.57,53.46-1.99c2.2-0.18,4.4-0.39,6.59-0.6c2.19-0.21,4.38-0.44,6.55-0.68c4.18-0.46,8.53-1.02,12.93-1.65
		c4.24-0.61,8.48-1.3,12.61-2.06c4.21-0.76,8.3-1.61,12.17-2.51c4.01-0.92,7.89-1.94,11.54-3.02c3.65-1.07,7.23-2.28,10.65-3.58
		c1.52-0.58,3-1.18,4.43-1.81c0.22-0.09,0.45-0.14,0.69-0.14c0.17,0,0.33,0.03,0.49,0.08l1.94,0.61c0.5,0.16,0.86,0.53,0.91,0.97
		c0.06,0.44-0.19,0.86-0.64,1.1c-1.41,0.74-2.88,1.47-4.41,2.18c-3.1,1.43-6.54,2.81-10.5,4.2c-3.57,1.24-7.48,2.46-11.63,3.6
		c-3.94,1.07-8.12,2.09-12.44,3.03c-4.05,0.87-8.42,1.72-12.99,2.51c-3.96,0.69-8.34,1.35-13.38,2.04c-2.25,0.3-4.52,0.59-6.79,0.86
		c-2.28,0.27-4.56,0.52-6.85,0.75c-4.62,0.47-9.27,0.89-13.81,1.23c-4.66,0.34-9.35,0.63-13.93,0.86c-2.33,0.12-4.65,0.22-6.99,0.31
		c-2.33,0.09-4.66,0.16-6.99,0.22c-4.64,0.12-9.35,0.19-13.99,0.21C252.81,285.82,249.34,285.8,245.89,285.76z"/>
	<g>
		<g>
			<path class="st0" d="M381.53,202.56c-5.5,0-9.97-4.47-9.97-9.97s4.47-9.97,9.97-9.97s9.97,4.47,9.97,9.97
				S387.03,202.56,381.53,202.56z M381.53,183.9c-4.8,0-8.7,3.9-8.7,8.7c0,4.8,3.9,8.7,8.7,8.7s8.7-3.9,8.7-8.7
				C390.23,187.8,386.33,183.9,381.53,183.9z"/>
		</g>
		<g>
			<path class="st0" d="M384.05,197.18l-1.92-2.75c-0.08,0.01-0.2,0.01-0.36,0.01h-2.12v2.73h-1.74v-9.38h3.86
				c0.81,0,1.52,0.13,2.12,0.4c0.6,0.27,1.07,0.65,1.39,1.15c0.32,0.5,0.48,1.09,0.48,1.78c0,0.71-0.17,1.31-0.52,1.82
				c-0.34,0.51-0.84,0.89-1.48,1.14l2.16,3.08H384.05z M383.41,189.76c-0.39-0.32-0.97-0.48-1.73-0.48h-2.04v3.74h2.04
				c0.76,0,1.34-0.16,1.73-0.49c0.39-0.33,0.59-0.79,0.59-1.39C384,190.54,383.81,190.08,383.41,189.76z"/>
		</g>
	</g>
</g>
</svg>
