<?xml version="1.0" encoding="utf-8"?>
<!-- Generator: Adobe Illustrator 28.4.1, SVG Export Plug-In . SVG Version: 6.00 Build 0)  -->
<svg version="1.0" id="Layer_1" xmlns="http://www.w3.org/2000/svg" xmlns:xlink="http://www.w3.org/1999/xlink" x="0px" y="0px"
	 viewBox="0 0 40.57 28.83" style="enable-background:new 0 0 40.57 28.83;" xml:space="preserve">
<style type="text/css">
	.st0{fill:#EC1C24;}
</style>
<g>
	<path class="st0" d="M0.2,14.89l2.47,2.47l8.8,8.8l2.43,2.43c0.51,0.51,0.98,0.03,0.98,0.03l0,0l13.75-13.75h0
		c0,0,0.48-0.47-0.03-0.98l-1.96-1.96c-0.04-0.04-0.49-0.45-0.98,0.04L14.85,22.78c-0.1,0.09-0.51,0.38-0.95-0.05l-7.83-7.83
		c-0.05-0.05-0.44-0.49,0.04-0.97L16.89,3.13c0.26-0.26,0.26-0.68,0-0.94L14.9,0.2c-0.26-0.26-0.68-0.26-0.94,0L0.24,13.92
		C-0.24,14.4,0.14,14.84,0.2,14.89"/>
	<path class="st0" d="M26.63,0.2l2.47,2.47l8.8,8.8l2.43,2.43c0.51,0.51,0.03,0.98,0.03,0.98L26.61,28.63c0,0-0.47,0.48-0.98-0.03
		l-1.96-1.96c-0.04-0.04-0.45-0.49,0.04-0.98l10.81-10.81c0.09-0.1,0.38-0.51-0.05-0.95l-7.83-7.83c-0.05-0.05-0.49-0.44-0.97,0.04
		L14.87,16.89c-0.26,0.26-0.68,0.26-0.94,0l-1.99-1.99c-0.26-0.26-0.26-0.68,0-0.95L25.66,0.24C26.14-0.24,26.58,0.14,26.63,0.2"/>
</g>
</svg>
