<?xml version="1.0" encoding="utf-8"?>
<!-- Generator: Adobe Illustrator 28.4.1, SVG Export Plug-In . SVG Version: 6.00 Build 0)  -->
<svg version="1.0" id="Layer_1" xmlns="http://www.w3.org/2000/svg" xmlns:xlink="http://www.w3.org/1999/xlink" x="0px" y="0px"
	 viewBox="0 0 553 120" style="enable-background:new 0 0 553 120;" xml:space="preserve">
<style type="text/css">
	.st0{fill:#FFFFFF;}
	.st1{fill:#EC1C24;}
</style>
<g>
	<path class="st0" d="M187.09,88.23c12.25,0,18.8-6.63,22.13-12.19c0.23-0.37,0.28-0.82,0.15-1.25c-0.12-0.42-0.41-0.77-0.79-0.94
		l-7.68-3.74c-0.65-0.32-1.41-0.08-1.81,0.55c-2.6,4.14-7.19,6.71-12,6.71c-9.04,0-15.85-7.42-15.85-17.27
		c0-9.86,6.81-17.28,15.85-17.28c4.8,0,9.4,2.57,12,6.71c0.4,0.64,1.16,0.87,1.81,0.56l7.68-3.73c0.38-0.19,0.67-0.53,0.79-0.95
		c0.13-0.43,0.07-0.87-0.15-1.25c-4.82-8.09-12.27-12.19-22.13-12.19c-16.36,0-28.23,11.83-28.23,28.13
		C158.86,76.4,170.73,88.23,187.09,88.23"/>
	<path class="st0" d="M251.59,87.22c0.85,0,1.54-0.69,1.54-1.54V78.5c0-0.85-0.69-1.54-1.54-1.54h-22.64V64.85h18.4
		c0.85,0,1.54-0.69,1.54-1.54v-7.27c0-0.84-0.69-1.53-1.54-1.53h-18.4V43.16h22.64c0.85,0,1.54-0.69,1.54-1.54v-7.19
		c0-0.85-0.69-1.54-1.54-1.54h-33.63c-0.85,0-1.54,0.69-1.54,1.54v51.24c0,0.85,0.69,1.54,1.54,1.54H251.59z"/>
	<path class="st0" d="M293.96,87.22c0.78,0,1.42-0.64,1.42-1.42v-7.84c0-0.78-0.64-1.42-1.42-1.42h-19.52V34.32
		c0-0.78-0.64-1.42-1.42-1.42h-9.7c-0.78,0-1.42,0.64-1.42,1.42V85.8c0,0.78,0.64,1.42,1.42,1.42H293.96z"/>
	<path class="st0" d="M315.64,32.9h-9.52c-0.83,0-1.51,0.68-1.51,1.51v51.3c0,0.83,0.68,1.51,1.51,1.51h9.52
		c0.83,0,1.51-0.68,1.51-1.51v-51.3C317.15,33.58,316.47,32.9,315.64,32.9"/>
	<path class="st0" d="M339.23,87.22c0.84,0,1.52-0.69,1.52-1.52V71.4l4.84-6.03l14.78,21.19c0.28,0.41,0.75,0.65,1.25,0.65h11.39
		c0.59,0,1.1-0.32,1.37-0.85c0.26-0.53,0.2-1.14-0.16-1.6l-18.7-24.32c-1.01-1.31-0.97-3.11,0.08-4.38l17.15-20.67
		c0.39-0.47,0.47-1.07,0.21-1.62c-0.26-0.55-0.77-0.88-1.38-0.88H360.3c-0.48,0-0.93,0.23-1.22,0.62l-18.33,24.5V34.43
		c0-0.84-0.69-1.53-1.52-1.53h-9.49c-0.84,0-1.52,0.69-1.52,1.53V85.7c0,0.84,0.68,1.52,1.52,1.52H339.23z"/>
	<path class="st0" d="M400.53,88.23c13.57,0,21.67-6.67,21.67-17.83c0-11.96-11.89-14.54-20.57-16.42
		c-5.94-1.17-10.15-2.29-10.15-6.12c0-1.62,0.73-5.38,7.43-5.38c4.49,0,9.42,1.55,13.53,4.24c0.95,0.62,2.17,0.39,2.85-0.52
		l3.88-5.26c0.38-0.51,0.53-1.16,0.43-1.8c-0.1-0.63-0.43-1.17-0.93-1.52c-5.26-3.69-11.6-5.56-18.86-5.56
		c-14.22,0-20.69,8.63-20.69,16.65c0,12.31,11.24,14.63,20.27,16.49l0.46,0.09c5.52,1.21,10.08,2.55,10.08,6.71
		c0,3.42-3.59,5.8-8.73,5.8c-7.08,0-12.29-2.91-15.42-5.34c-0.42-0.33-0.9-0.5-1.4-0.5c-0.11,0-0.22,0-0.33,0.02
		c-0.57,0.09-1.07,0.41-1.41,0.9v0l-3.75,5.5c-0.68,1-0.49,2.41,0.42,3.14C384.81,85.98,391.95,88.23,400.53,88.23"/>
	<path class="st0" d="M426.28,86.22c0.44,0.63,1.12,0.99,1.88,0.99h8.12c1,0,1.88-0.66,2.21-1.64l2.24-6.88h24.1l2.24,6.88
		c0.32,0.98,1.21,1.64,2.2,1.64h8.12c0.75,0,1.43-0.36,1.88-1c0.46-0.67,0.57-1.53,0.29-2.3l-18.11-49.45
		c-0.34-0.93-1.21-1.57-2.17-1.57H446.2c-0.96,0-1.84,0.64-2.18,1.57l-18.04,49.45C425.69,84.7,425.8,85.56,426.28,86.22
		 M452.73,41.45l9.07,26.99h-18.05L452.73,41.45z"/>
	<path class="st0" d="M521.86,87.22h10.24c0.82,0,1.49-0.67,1.49-1.49V34.65c0-0.97-0.78-1.75-1.74-1.75h-9.13
		c-0.96,0-1.74,0.78-1.74,1.75v33.12l-21.4-34.17c-0.3-0.42-0.83-0.7-1.4-0.7h-10.78c-0.96,0-1.74,0.78-1.74,1.75v51.08
		c0,0.82,0.67,1.49,1.49,1.49h9.55c0.82,0,1.49-0.67,1.49-1.49V50.76l22.48,35.87C520.92,86.98,521.37,87.22,521.86,87.22"/>
	<path class="st1" d="M20.03,61.5l7.74,7.74l27.6,27.6l7.61,7.62c1.6,1.6,3.07,0.1,3.07,0.1l0,0l43.13-43.13h0
		c0,0,1.5-1.47-0.11-3.08l-6.14-6.14c-0.12-0.12-1.53-1.41-3.06,0.12l-33.89,33.9c-0.31,0.27-1.6,1.21-2.99-0.17L38.43,61.5
		c-0.16-0.17-1.38-1.55,0.13-3.06l33.82-33.83c0.81-0.81,0.81-2.14,0-2.95l-6.24-6.24c-0.82-0.82-2.14-0.82-2.96,0L20.16,58.45
		C18.66,59.95,19.87,61.32,20.03,61.5"/>
	<path class="st1" d="M102.93,15.42l7.74,7.74l27.6,27.6l7.61,7.61c1.6,1.6,0.1,3.07,0.1,3.07l-43.13,43.13c0,0-1.47,1.49-3.07-0.11
		l-6.14-6.14c-0.12-0.12-1.41-1.53,0.12-3.06l33.89-33.89c0.27-0.32,1.21-1.6-0.17-2.98l-24.56-24.56
		c-0.17-0.16-1.55-1.38-3.06,0.13L66.05,67.77c-0.81,0.81-2.14,0.81-2.95,0l-6.24-6.25c-0.82-0.81-0.82-2.14,0-2.97l43.02-43.01
		C101.38,14.04,102.76,15.25,102.93,15.42"/>
</g>
</svg>
