<?xml version="1.0" encoding="UTF-8"?>
<svg id="Layer_1" data-name="Layer 1" xmlns="http://www.w3.org/2000/svg" version="1.1" viewBox="0 0 553 120">
  <defs>
    <style>
      .cls-1 {
        fill: #ec1c24;
      }

      .cls-1, .cls-2 {
        stroke-width: 0px;
      }

      .cls-2 {
        fill: #3f3a3b;
      }
    </style>
  </defs>
  <path class="cls-2" d="M187.1,88.2c12.2,0,18.8-6.6,22.1-12.2.2-.4.3-.8.1-1.2-.1-.4-.4-.8-.8-.9l-7.7-3.7c-.6-.3-1.4,0-1.8.6-2.6,4.1-7.2,6.7-12,6.7-9,0-15.9-7.4-15.9-17.3s6.8-17.3,15.9-17.3,9.4,2.6,12,6.7c.4.6,1.2.9,1.8.6l7.7-3.7c.4-.2.7-.5.8-1,.1-.4,0-.9-.1-1.2-4.8-8.1-12.3-12.2-22.1-12.2-16.4,0-28.2,11.8-28.2,28.1s11.9,28.1,28.2,28.1"/>
  <path class="cls-2" d="M251.6,87.2c.9,0,1.5-.7,1.5-1.5v-7.2c0-.8-.7-1.5-1.5-1.5h-22.6v-12.1h18.4c.9,0,1.5-.7,1.5-1.5v-7.3c0-.8-.7-1.5-1.5-1.5h-18.4v-11.3h22.6c.9,0,1.5-.7,1.5-1.5v-7.2c0-.8-.7-1.5-1.5-1.5h-33.6c-.9,0-1.5.7-1.5,1.5v51.2c0,.8.7,1.5,1.5,1.5h33.6Z"/>
  <path class="cls-2" d="M294,87.2c.8,0,1.4-.6,1.4-1.4v-7.8c0-.8-.6-1.4-1.4-1.4h-19.5v-42.2c0-.8-.6-1.4-1.4-1.4h-9.7c-.8,0-1.4.6-1.4,1.4v51.5c0,.8.6,1.4,1.4,1.4h30.6Z"/>
  <path class="cls-2" d="M315.6,32.9h-9.5c-.8,0-1.5.7-1.5,1.5v51.3c0,.8.7,1.5,1.5,1.5h9.5c.8,0,1.5-.7,1.5-1.5v-51.3c0-.8-.7-1.5-1.5-1.5"/>
  <path class="cls-2" d="M339.2,87.2c.8,0,1.5-.7,1.5-1.5v-14.3l4.8-6,14.8,21.2c.3.4.8.7,1.2.7h11.4c.6,0,1.1-.3,1.4-.8.3-.5.2-1.1-.2-1.6l-18.7-24.3c-1-1.3-1-3.1,0-4.4l17.1-20.7c.4-.5.5-1.1.2-1.6s-.8-.9-1.4-.9h-11.3c-.5,0-.9.2-1.2.6l-18.3,24.5v-23.6c0-.8-.7-1.5-1.5-1.5h-9.5c-.8,0-1.5.7-1.5,1.5v51.3c0,.8.7,1.5,1.5,1.5,0,0,9.5,0,9.5,0Z"/>
  <path class="cls-2" d="M400.5,88.2c13.6,0,21.7-6.7,21.7-17.8s-11.9-14.5-20.6-16.4c-5.9-1.2-10.1-2.3-10.1-6.1s.7-5.4,7.4-5.4,9.4,1.5,13.5,4.2c1,.6,2.2.4,2.9-.5l3.9-5.3c.4-.5.5-1.2.4-1.8-.1-.6-.4-1.2-.9-1.5-5.3-3.7-11.6-5.6-18.9-5.6-14.2,0-20.7,8.6-20.7,16.6,0,12.3,11.2,14.6,20.3,16.5h.5c5.5,1.3,10.1,2.6,10.1,6.8s-3.6,5.8-8.7,5.8-12.3-2.9-15.4-5.3c-.4-.3-.9-.5-1.4-.5s-.2,0-.3,0c-.6,0-1.1.4-1.4.9h0l-3.8,5.5c-.7,1-.5,2.4.4,3.1,5.5,4.5,12.6,6.7,21.2,6.7"/>
  <path class="cls-2" d="M426.3,86.2c.4.6,1.1,1,1.9,1h8.1c1,0,1.9-.7,2.2-1.6l2.2-6.9h24.1l2.2,6.9c.3,1,1.2,1.6,2.2,1.6h8.1c.8,0,1.4-.4,1.9-1,.5-.7.6-1.5.3-2.3l-18.1-49.5c-.3-.9-1.2-1.6-2.2-1.6h-13.1c-1,0-1.8.6-2.2,1.6l-18,49.5c-.3.8-.2,1.7.3,2.3M452.7,41.5l9.1,27h-18l9-27Z"/>
  <path class="cls-2" d="M521.9,87.2h10.2c.8,0,1.5-.7,1.5-1.5v-51.1c0-1-.8-1.8-1.7-1.8h-9.1c-1,0-1.7.8-1.7,1.8v33.1l-21.4-34.2c-.3-.4-.8-.7-1.4-.7h-10.8c-1,0-1.7.8-1.7,1.8v51.1c0,.8.7,1.5,1.5,1.5h9.5c.8,0,1.5-.7,1.5-1.5v-35l22.5,35.9c.2.4.7.6,1.2.6"/>
  <path class="cls-1" d="M20,61.5l7.7,7.7,27.6,27.6,7.6,7.6c1.6,1.6,3.1,0,3.1,0h0l43.1-43.1h0s1.5-1.5-.1-3.1l-6.1-6.1c-.1-.1-1.5-1.4-3.1.1l-33.9,33.9c-.3.3-1.6,1.2-3-.2l-24.6-24.6c-.2-.2-1.4-1.5.1-3.1l33.8-33.8c.8-.8.8-2.1,0-3l-6.2-6.2c-.8-.8-2.1-.8-3,0L20.2,58.5c-1.5,1.5-.3,2.9-.1,3"/>
  <path class="cls-1" d="M102.9,15.4l7.7,7.7,27.6,27.6,7.6,7.6c1.6,1.6.1,3.1.1,3.1l-43.1,43.1s-1.5,1.5-3.1-.1l-6.1-6.1c-.1-.1-1.4-1.5.1-3.1l33.9-33.9c.3-.3,1.2-1.6-.2-3l-24.6-24.6c-.2-.2-1.6-1.4-3.1.1l-33.8,33.8c-.8.8-2.1.8-3,0l-6.2-6.2c-.8-.8-.8-2.1,0-3L99.9,15.5c1.5-1.5,2.9-.3,3-.1"/>
</svg>