<?xml version="1.0" encoding="utf-8"?>
<!-- Generator: Adobe Illustrator 16.0.0, SVG Export Plug-In . SVG Version: 6.00 Build 0)  -->
<!DOCTYPE svg PUBLIC "-//W3C//DTD SVG 1.1//EN" "http://www.w3.org/Graphics/SVG/1.1/DTD/svg11.dtd">
<svg version="1.1" id="Layer_1" xmlns="http://www.w3.org/2000/svg" xmlns:xlink="http://www.w3.org/1999/xlink" x="0px" y="0px"
	 width="162px" height="65px" viewBox="0 0 162 65" enable-background="new 0 0 162 65" xml:space="preserve">
<g>
	<g>
		<path fill="#FFFFFF" d="M17.003,39.928h-1.977L6.938,5.156c-0.451-1.979-1.13-2.658-2.487-2.658H4.057V1.594h10.516v0.904h-0.226
			c-1.3,0-1.921,0.734-1.696,1.923l5.09,25.216l1.978-8.425c1.075-4.467,1.923-8.312,2.658-11.534
			c0.733-3.223,1.13-4.975,1.13-5.257c0-1.358-0.565-1.923-2.602-1.923V1.594h8.084v0.904c-1.865,0-3.278,1.3-3.674,3.055
			L17.003,39.928z"/>
		<path fill="#FFFFFF" d="M35.38,18.781c0.057-2.091-0.224-4.014-2.825-4.24c-2.035,0-2.771,1.301-2.771,2.431
			c0,0.508,0.395,1.3,0.395,1.809c0,1.357-0.904,2.205-2.203,2.205c-1.359,0-2.546-1.018-2.546-2.431
			c0-1.413,0.793-2.602,2.375-3.563c1.641-0.958,3.504-1.413,5.709-1.413c4.071,0,6.617,2.092,6.617,6.447v17.186
			c0,1.131,0.619,1.693,1.866,1.693v0.965H35.38v-1.527c-1.016,1.242-2.542,1.865-4.58,1.865c-3.616,0-6.444-2.771-6.444-6.389
			c0.056-2.091,0.622-3.673,1.98-4.804c0.676-0.566,1.299-1.019,1.864-1.302c0.566-0.338,1.413-0.791,2.486-1.299
			c1.075-0.511,1.925-0.961,2.548-1.301c1.072-0.508,1.809-1.131,2.146-1.752V18.781z M35.38,24.662
			c-0.396,0.507-1.186,1.075-2.261,1.809c-1.074,0.679-1.865,1.244-2.319,1.697c-1.074,1.129-1.638,2.884-1.638,5.201
			c0,2.714,1.131,5.146,3.788,5.146c1.3,0,2.264-1.131,2.43-1.867V24.662z"/>
		<path fill="#FFFFFF" d="M49.461,1.594v14.134c0.847-1.187,2.94-2.148,4.917-2.148c3.9,0,6.729,2.205,6.729,6.502v17.13
			c0,1.131,0.451,1.693,1.413,1.693h0.565v0.965h-8.818v-0.965h0.621c0.791,0,1.467-0.111,1.467-1.693v-17.64
			c0-2.545-1.185-4.297-3.503-4.297c-1.866,0-3.392,1.47-3.392,3.506v18.432c0,1.131,0.507,1.693,1.469,1.693h0.284v0.965h-8.538
			v-0.965h0.452c0.849,0,1.582-0.111,1.582-1.693V4.139c0-1.414-0.565-1.641-1.637-1.641h-0.737V1.594H49.461z"/>
		<path fill="#FFFFFF" d="M63.709,32.52h1.13c0.114,1.81,0.623,6.728,4.75,6.728c1.979,0,3.28-1.584,3.28-3.674
			c0-6.164-9.499-8.199-9.499-15.378c0-1.923,0.734-3.506,2.205-4.75c1.524-1.243,3.222-1.866,5.089-1.866
			c1.638,0,3.277,0.285,5.03,0.903v6.164h-1.187c-0.283-4.071-1.696-6.105-4.184-6.105c-2.034,0-3.281,1.64-3.281,3.393
			c0,5.314,9.614,8.197,9.614,15.151c0,1.979-0.736,3.672-2.149,5.09c-1.414,1.354-3.054,2.033-4.919,2.033
			c-2.319,0-4.297-0.338-5.88-1.074V32.52z"/>
		<path fill="#FFFFFF" d="M76.939,13.976h7.124v23.237c0,1.131,0.51,1.693,1.471,1.693h0.564v0.965h-8.989v-0.965h0.623
			c0.847,0,1.582-0.111,1.582-1.693V16.521c0-1.414-0.566-1.641-1.641-1.641h-0.734V13.976z M81.237,7.327
			c1.333,0,2.324,1.122,2.324,2.329c0,1.507-0.991,2.542-2.324,2.542c-1.335,0-2.329-1.035-2.329-2.542
			C78.908,8.449,79.985,7.327,81.237,7.327z"/>
		<path fill="#FFFFFF" d="M88.807,1.594H99.49c5.823,0,9.669,2.713,9.669,8.424c0,2.204-0.734,4.241-2.148,6.106
			c-1.414,1.866-3.165,3.053-5.315,3.448c2.545,0.51,4.639,1.752,6.221,3.732c1.582,1.979,2.376,4.184,2.376,6.615
			c0,2.769-0.963,5.088-2.832,7.068c-1.863,1.918-4.181,2.883-6.95,2.883H88.749v-0.965h0.567c0.96,0,1.582-0.225,1.809-0.9
			c0.282-0.68,0.282-0.963,0.282-2.096V5.269c0.055-1.357,0-2.543-2.147-2.771h-0.453V1.594z M101.753,3.912
			c-1.355-0.96-2.263-1.187-3.675-1.187h-1.415v16.339h2.264c1.301,0,2.487-0.791,3.449-2.374c0.961-1.64,1.47-3.618,1.47-5.994
			C103.846,7.135,103.11,4.818,101.753,3.912z M96.663,20.364v16.792c0,1.02,0.453,1.525,1.358,1.525h1.527
			c3.393,0,5.146-3.336,5.146-8.592c0-4.014-1.02-6.955-2.434-8.142c-1.354-1.188-2.486-1.583-3.449-1.583H96.663z"/>
		<path fill="#FFFFFF" d="M122.052,18.781c0.055-2.091-0.227-4.014-2.827-4.24c-2.036,0-2.771,1.301-2.771,2.431
			c0,0.508,0.396,1.3,0.396,1.809c0,1.357-0.904,2.205-2.204,2.205c-1.359,0-2.545-1.018-2.545-2.431
			c0-1.413,0.791-2.602,2.375-3.563c1.64-0.958,3.505-1.413,5.709-1.413c4.071,0,6.616,2.092,6.616,6.447v17.186
			c0,1.131,0.622,1.693,1.865,1.693v0.965h-6.614v-1.527c-1.02,1.242-2.545,1.865-4.582,1.865c-3.615,0-6.445-2.771-6.445-6.389
			c0.06-2.091,0.625-3.673,1.979-4.804c0.68-0.566,1.302-1.019,1.867-1.302c0.564-0.338,1.415-0.791,2.487-1.299
			c1.075-0.511,1.922-0.961,2.545-1.301c1.075-0.508,1.809-1.131,2.148-1.752V18.781z M122.052,24.662
			c-0.396,0.507-1.19,1.075-2.263,1.809c-1.073,0.679-1.863,1.244-2.319,1.697c-1.071,1.129-1.639,2.884-1.639,5.201
			c0,2.714,1.131,5.146,3.787,5.146c1.303,0,2.264-1.131,2.434-1.867V24.662z"/>
		<path fill="#FFFFFF" d="M135.792,8.152v5.824h2.957v1.299h-2.957v19.959c0,2.203,0.848,3.279,2.599,3.279
			c0.964,0,1.698-0.566,2.319-1.697l0.734,0.566c-1.244,1.865-2.825,2.826-4.748,2.826c-3.393,0-5.71-1.924-5.71-5.822V15.275
			h-2.488v-0.903c1.018-0.169,1.811-0.396,2.316-0.735c1.754-1.074,3.054-2.94,3.903-5.484H135.792z"/>
		<path fill="#FFFFFF" d="M140.824,13.976h7.126v23.237c0,1.131,0.508,1.693,1.469,1.693h0.562v0.965h-8.987v-0.965h0.621
			c0.848,0,1.583-0.111,1.583-1.693V16.521c0-1.414-0.563-1.641-1.64-1.641h-0.734V13.976z"/>
		<g>
			<path fill="#FFFFFF" d="M155.936,38.68l-0.453-1.523c0.253-0.164,0.432-0.498,0.432-0.836c0-0.559-0.386-0.889-0.909-0.889
				h-1.069v0.088h0.049c0.206,0.02,0.221,0.135,0.216,0.264v2.912c0.005,0.139-0.01,0.268-0.216,0.285h-0.049v0.09h1.03v-0.09
				h-0.062c-0.137,0-0.206-0.098-0.206-0.285V37.32l0.223,0.004c0.09,0,0.147,0.049,0.177,0.146l0.396,1.482
				c0.027,0.08,0.08,0.117,0.166,0.117h0.584v-0.09C156.084,38.98,155.998,38.895,155.936,38.68z M155.291,36.938
				c-0.082,0.172-0.217,0.258-0.409,0.258c-0.026,0-0.091,0-0.184-0.006v-1.645h0.169c0.357,0,0.541,0.266,0.541,0.797
				C155.408,36.568,155.371,36.766,155.291,36.938z"/>
			<path fill="#FFFFFF" d="M155.088,34.398c-1.574,0-2.855,1.279-2.855,2.854s1.281,2.854,2.855,2.854
				c1.575,0,2.855-1.279,2.855-2.854S156.663,34.398,155.088,34.398z M155.088,39.832c-1.423,0-2.581-1.158-2.581-2.58
				s1.158-2.58,2.581-2.58c1.424,0,2.583,1.158,2.583,2.58S156.512,39.832,155.088,39.832z"/>
		</g>
		<path fill="#FFFFFF" d="M71.165,40.02c0.012-0.207,0.023-0.412,0.034-0.607c-1.077,0.102-2.027,0.383-2.881,0.881
			c-1.039,0.631-1.557,1.41-1.557,2.336c0,0.928,0.776,1.596,1.669,1.596c0.851,0,1.445-0.555,1.445-1.445
			c0-0.336-0.262-0.854-0.262-1.188C69.614,40.904,70.038,40.129,71.165,40.02z"/>
	</g>
	<g>
		<path fill="#FFFFFF" d="M14.259,52.701h0.889c0.238,0,0.38-0.045,0.555-0.193c0.186-0.168,0.317-0.547,0.379-1.119h0.158v1.506
			h-2.895l2.138-5.766h-0.651c-0.73,0-1.012,0.361-1.012,1.145h-0.176v-1.338h2.79L14.259,52.701z"/>
		<path fill="#FFFFFF" d="M20.067,47.164c0.264-0.08,0.501-0.203,0.723-0.389l1.213,5.537c0.062,0.291,0.22,0.432,0.484,0.432v0.15
			h-1.672v-0.15c0.309,0,0.379-0.08,0.343-0.334l-0.034-0.168c-0.045-0.236-0.159-0.781-0.265-1.268h-1.073l-0.256,1.428
			c-0.026,0.186,0.062,0.334,0.414,0.342v0.15h-1.25v-0.15c0.352,0,0.475-0.156,0.555-0.484l0.905-4.664L20.067,47.164z
			 M20.815,50.746l-0.528-2.518l-0.457,2.518H20.815z"/>
		<path fill="#FFFFFF" d="M26.799,52.596h-0.132l-1.135-4.455v4.041c0,0.379,0.132,0.562,0.388,0.562h0.087v0.15h-1.249v-0.15h0.078
			c0.265,0,0.396-0.184,0.396-0.562v-4.516c0.009-0.299-0.018-0.555-0.334-0.59h-0.097v-0.141h1.346l0.872,3.66l0.871-3.66h1.241
			v0.141h-0.07c-0.203,0-0.308,0.15-0.308,0.449v4.754c0,0.309,0.104,0.465,0.316,0.465h0.088v0.15h-1.664v-0.15h0.08
			c0.334-0.025,0.369-0.219,0.361-0.465V48.07L26.799,52.596z"/>
		<path fill="#FFFFFF" d="M32.87,47.164c0.265-0.08,0.503-0.203,0.723-0.389l1.215,5.537c0.062,0.291,0.22,0.432,0.484,0.432v0.15
			h-1.673v-0.15c0.308,0,0.378-0.08,0.343-0.334l-0.035-0.168c-0.043-0.236-0.158-0.781-0.263-1.268h-1.075l-0.255,1.428
			c-0.026,0.186,0.062,0.334,0.414,0.342v0.15h-1.249v-0.15c0.352,0,0.475-0.156,0.554-0.484l0.907-4.664L32.87,47.164z
			 M33.619,50.746l-0.527-2.518l-0.459,2.518H33.619z"/>
		<path fill="#FFFFFF" d="M40.122,46.936h1.285v0.141h-0.114c-0.256,0-0.379,0.229-0.379,0.686v5.133h-0.246l-2.315-4.586v3.943
			c0,0.326,0.142,0.492,0.415,0.492h0.069v0.15h-1.249v-0.15h0.079c0.265,0,0.396-0.166,0.396-0.492v-4.418
			c0-0.504-0.132-0.758-0.405-0.758h-0.097v-0.141h1.073l1.988,4.066v-3.24c0-0.457-0.123-0.686-0.368-0.686h-0.133V46.936z"/>
		<path fill="#FFFFFF" d="M48.42,52.059c-0.326-0.627-0.492-1.355-0.492-2.174c0-0.838,0.166-1.559,0.501-2.148
			c0.334-0.6,0.766-0.898,1.285-0.898c0.528,0,0.959,0.299,1.285,0.889c0.333,0.59,0.501,1.312,0.501,2.158
			c0,0.51-0.071,1.004-0.211,1.469c-0.132,0.467-0.343,0.854-0.624,1.172c-0.273,0.307-0.59,0.467-0.951,0.467
			C49.177,52.992,48.746,52.682,48.42,52.059z M48.817,45.783c0.165-0.168,0.413-0.168,0.579,0c0.168,0.168,0.168,0.414,0,0.58
			c-0.166,0.168-0.414,0.168-0.579,0C48.649,46.197,48.649,45.951,48.817,45.783z M49.019,52.145
			c0.158,0.434,0.387,0.645,0.695,0.645c0.299,0,0.528-0.221,0.687-0.652s0.238-1.17,0.238-2.207c0-1.93-0.309-2.889-0.925-2.889
			S48.79,48,48.79,49.93C48.79,50.975,48.869,51.715,49.019,52.145z M49.978,45.783c0.168-0.168,0.441-0.168,0.591,0
			c0.167,0.168,0.167,0.414,0,0.58c-0.149,0.168-0.423,0.168-0.591,0C49.828,46.197,49.828,45.951,49.978,45.783z M71.46,45.783
			c0.167-0.168,0.439-0.168,0.589,0c0.168,0.168,0.168,0.414,0,0.58c-0.149,0.168-0.422,0.168-0.589,0
			C71.311,46.197,71.311,45.951,71.46,45.783z"/>
		<path fill="#FFFFFF" d="M57.317,46.936v1.338h-0.149c-0.062-0.537-0.212-0.881-0.432-1.012c-0.211-0.133-0.334-0.15-0.554-0.15
			h-0.097v5.168c0,0.309,0.123,0.465,0.369,0.465h0.14v0.15h-1.804v-0.15h0.15c0.317-0.043,0.334-0.211,0.324-0.465v-5.168H55.17
			c-0.221,0-0.344,0.018-0.563,0.15c-0.211,0.131-0.361,0.475-0.423,1.012h-0.149v-1.338H57.317z"/>
		<path fill="#FFFFFF" d="M61.277,47.129v2.588h0.255c0.326,0,0.59-0.211,0.59-0.562v-0.193h0.176v1.838h-0.176v-0.281
			c0-0.361-0.264-0.607-0.59-0.607h-0.255v2.543c0,0.168,0.07,0.248,0.21,0.248h0.397c0.237,0,0.378-0.045,0.554-0.193
			c0.186-0.168,0.318-0.547,0.38-1.119h0.158v1.506h-2.959v-0.15h0.115c0.221,0,0.326-0.156,0.326-0.465v-4.771
			c0.008-0.213-0.009-0.396-0.345-0.432h-0.097v-0.141h2.853v1.338h-0.158c-0.07-0.713-0.308-1.145-0.942-1.145H61.277z"/>
		<path fill="#FFFFFF" d="M67.974,52.508c-0.237,0.324-0.564,0.484-0.995,0.484c-0.141,0-0.36-0.027-0.651-0.072l-0.491-0.07v-1.461
			h0.157c0.026,0.344,0.123,0.658,0.291,0.951c0.176,0.289,0.404,0.441,0.694,0.441c0.521,0,0.758-0.389,0.758-0.848
			c0-0.535-0.317-1.062-0.714-1.479c-0.562-0.598-1.294-1.24-1.294-2.146c0-0.414,0.133-0.756,0.405-1.037
			c0.273-0.293,0.607-0.434,1.021-0.434c0.283,0,0.6,0.045,0.959,0.123v1.189h-0.167c-0.026-0.291-0.113-0.547-0.246-0.766
			c-0.132-0.221-0.333-0.334-0.607-0.334c-0.694-0.01-0.959,0.896-0.536,1.566c0.273,0.457,0.687,0.826,1.073,1.24
			c0.396,0.414,0.704,0.959,0.704,1.531C68.334,51.812,68.211,52.182,67.974,52.508z"/>
		<path fill="#FFFFFF" d="M72.575,46.936v0.141h-0.043c-0.336,0.035-0.353,0.219-0.344,0.432v4.771c0,0.246,0.008,0.439,0.325,0.465
			h0.08v0.15h-1.682v-0.15h0.105c0.335-0.025,0.361-0.219,0.353-0.465v-4.771c0.009-0.213-0.018-0.396-0.369-0.432h-0.062v-0.141
			H72.575z"/>
	</g>
	<g>
		<path fill="#FFFFFF" d="M16.646,57.352v1.336h-0.15c-0.062-0.537-0.211-0.881-0.432-1.012c-0.21-0.131-0.334-0.148-0.554-0.148
			h-0.098v5.166c0,0.307,0.124,0.465,0.369,0.465h0.142v0.15h-1.804v-0.15h0.149c0.316-0.045,0.335-0.211,0.325-0.465v-5.166h-0.097
			c-0.22,0-0.343,0.018-0.562,0.148c-0.213,0.131-0.361,0.475-0.423,1.012h-0.149v-1.336H16.646z"/>
		<path fill="#FFFFFF" d="M20.226,57.58c0.265-0.08,0.503-0.203,0.723-0.389l1.214,5.535c0.061,0.291,0.221,0.432,0.483,0.432v0.15
			h-1.671v-0.15c0.308,0,0.378-0.078,0.343-0.334l-0.035-0.166c-0.044-0.238-0.158-0.783-0.266-1.27h-1.072l-0.256,1.428
			C19.663,63,19.75,63.15,20.103,63.158v0.15h-1.249v-0.15c0.351,0,0.476-0.158,0.554-0.484l0.907-4.664L20.226,57.58z
			 M20.975,61.162l-0.529-2.518l-0.457,2.518H20.975z"/>
		<path fill="#FFFFFF" d="M27.09,62.92c-0.238,0.328-0.562,0.486-0.994,0.486c-0.141,0-0.361-0.027-0.651-0.07l-0.494-0.072v-1.459
			h0.159c0.027,0.342,0.123,0.66,0.291,0.949c0.177,0.291,0.404,0.441,0.695,0.441c0.52,0,0.756-0.389,0.756-0.846
			c0-0.537-0.316-1.066-0.712-1.479c-0.562-0.6-1.293-1.24-1.293-2.148c0-0.412,0.131-0.758,0.404-1.039
			c0.272-0.289,0.606-0.43,1.021-0.43c0.281,0,0.599,0.043,0.96,0.123v1.188h-0.168c-0.026-0.289-0.115-0.545-0.246-0.766
			c-0.132-0.219-0.335-0.334-0.607-0.334c-0.695-0.01-0.959,0.898-0.536,1.566c0.271,0.457,0.686,0.826,1.073,1.24
			c0.396,0.414,0.704,0.959,0.704,1.533C27.451,62.227,27.328,62.596,27.09,62.92z"/>
		<path fill="#FFFFFF" d="M31.04,57.58c0.265-0.08,0.503-0.203,0.723-0.389l1.215,5.535c0.061,0.291,0.22,0.432,0.483,0.432v0.15
			h-1.672v-0.15c0.308,0,0.378-0.078,0.344-0.334l-0.036-0.166c-0.044-0.238-0.158-0.783-0.264-1.27h-1.074l-0.255,1.428
			c-0.026,0.184,0.062,0.334,0.413,0.342v0.15h-1.249v-0.15c0.352,0,0.475-0.158,0.555-0.484l0.906-4.664L31.04,57.58z
			 M31.789,61.162l-0.529-2.518l-0.456,2.518H31.789z"/>
		<path fill="#FFFFFF" d="M38.318,60.176l0.74,2.49c0.104,0.352,0.245,0.492,0.501,0.492v0.15h-0.95
			c-0.142,0-0.229-0.061-0.274-0.195l-0.65-2.428c-0.044-0.158-0.141-0.236-0.29-0.236l-0.361-0.01v2.254
			c0,0.307,0.115,0.465,0.335,0.465h0.104v0.15h-1.688v-0.15h0.079c0.335-0.025,0.36-0.238,0.352-0.465v-4.771
			c0.009-0.211-0.017-0.395-0.352-0.432h-0.079v-0.139h1.752c0.853,0,1.486,0.535,1.486,1.451
			C39.022,59.355,38.732,59.902,38.318,60.176z M37.033,57.535v2.693c0.15,0.008,0.255,0.008,0.3,0.008
			c0.316,0,0.537-0.141,0.669-0.422c0.132-0.283,0.193-0.607,0.193-0.977c0-0.873-0.3-1.303-0.889-1.303H37.033z"/>
		<path fill="#FFFFFF" d="M43.501,57.352v0.139h-0.044c-0.335,0.037-0.352,0.221-0.343,0.432v4.771c0,0.244,0.008,0.439,0.324,0.465
			h0.081v0.15h-1.683v-0.15h0.106c0.335-0.025,0.361-0.221,0.353-0.465v-4.771c0.009-0.211-0.018-0.395-0.369-0.432h-0.062v-0.139
			H43.501z"/>
		<path fill="#FFFFFF" d="M48.307,63.01h-0.133l-1.135-4.455v4.041c0,0.377,0.132,0.562,0.388,0.562h0.087v0.15h-1.249v-0.15h0.078
			c0.264,0,0.396-0.186,0.396-0.562v-4.514c0.009-0.301-0.018-0.555-0.334-0.592h-0.097v-0.139h1.346l0.872,3.662l0.871-3.662h1.241
			v0.139h-0.07c-0.203,0-0.309,0.148-0.309,0.449v4.754c0,0.307,0.105,0.465,0.316,0.465h0.089v0.15h-1.664v-0.15h0.08
			c0.334-0.025,0.369-0.221,0.36-0.465v-4.207L48.307,63.01z"/>
		<path fill="#FFFFFF" d="M58.355,57.58c0.265-0.08,0.501-0.203,0.721-0.389l1.216,5.535c0.062,0.291,0.22,0.432,0.484,0.432v0.15
			h-1.674v-0.15c0.31,0,0.379-0.078,0.345-0.334l-0.035-0.166c-0.045-0.238-0.158-0.783-0.265-1.27h-1.073l-0.256,1.428
			C57.791,63,57.88,63.15,58.232,63.158v0.15h-1.25v-0.15c0.352,0,0.475-0.158,0.554-0.484l0.907-4.664L58.355,57.58z
			 M59.103,61.162l-0.527-2.518l-0.458,2.518H59.103z"/>
		<path fill="#FFFFFF" d="M65.95,57.352v1.336H65.8c-0.062-0.537-0.211-0.881-0.431-1.012c-0.211-0.131-0.335-0.148-0.556-0.148
			h-0.096v5.166c0,0.307,0.124,0.465,0.37,0.465h0.14v0.15h-1.804v-0.15h0.149c0.316-0.045,0.335-0.211,0.326-0.465v-5.166h-0.097
			c-0.22,0-0.343,0.018-0.562,0.148c-0.213,0.131-0.362,0.475-0.424,1.012h-0.148v-1.336H65.95z"/>
		<path fill="#FFFFFF" d="M68.986,62.471c-0.326-0.623-0.494-1.354-0.494-2.174c0-0.834,0.168-1.557,0.502-2.146
			c0.335-0.598,0.766-0.896,1.285-0.896c0.527,0,0.96,0.299,1.285,0.889c0.334,0.588,0.502,1.309,0.502,2.154
			c0,0.512-0.071,1.006-0.211,1.471c-0.133,0.467-0.345,0.855-0.626,1.17c-0.272,0.311-0.589,0.469-0.95,0.469
			C69.742,63.406,69.311,63.096,68.986,62.471z M69.381,56.197c0.168-0.168,0.413-0.168,0.582,0c0.167,0.168,0.167,0.414,0,0.58
			c-0.169,0.168-0.414,0.168-0.582,0C69.214,56.611,69.214,56.365,69.381,56.197z M69.584,62.561
			c0.158,0.432,0.387,0.643,0.695,0.643c0.299,0,0.527-0.221,0.686-0.652c0.16-0.43,0.238-1.17,0.238-2.209
			c0-1.928-0.308-2.887-0.924-2.887s-0.925,0.959-0.925,2.887C69.354,61.389,69.434,62.129,69.584,62.561z M70.544,56.197
			c0.166-0.168,0.439-0.168,0.588,0c0.168,0.168,0.168,0.414,0,0.58c-0.148,0.168-0.422,0.168-0.588,0
			C70.393,56.611,70.393,56.365,70.544,56.197z M97.203,56.197c0.166-0.168,0.439-0.168,0.589,0c0.168,0.168,0.168,0.414,0,0.58
			c-0.149,0.168-0.423,0.168-0.589,0C97.053,56.611,97.053,56.365,97.203,56.197z"/>
		<path fill="#FFFFFF" d="M75.973,62.869c0,0.166,0.07,0.244,0.211,0.244h0.37c0.237,0,0.378-0.043,0.555-0.193
			c0.185-0.166,0.316-0.543,0.378-1.115h0.158v1.504h-2.93v-0.15h0.114c0.221,0,0.325-0.158,0.325-0.465v-4.771
			c0.009-0.211-0.008-0.395-0.379-0.432h-0.052v-0.139h1.645v0.139H76.29c-0.317,0.037-0.326,0.221-0.317,0.432V62.869z"/>
		<path fill="#FFFFFF" d="M80.751,63.158c0.282-0.053,0.308-0.229,0.299-0.465v-1.885l-1.091-2.992
			c-0.079-0.221-0.167-0.326-0.475-0.326h-0.035v-0.139h1.786v0.139h-0.177c-0.177,0-0.236,0.143-0.203,0.273l0.846,2.553
			l0.88-2.553c0.044-0.148-0.062-0.273-0.236-0.273h-0.159v-0.139h1.241v0.139h-0.062c-0.247,0-0.406,0.098-0.476,0.283
			l-1.021,2.824v2.096c-0.009,0.236,0.008,0.412,0.343,0.465h0.142v0.15H80.61v-0.15H80.751z"/>
		<path fill="#FFFFFF" d="M87.122,57.545v2.586h0.255c0.326,0,0.59-0.211,0.59-0.562v-0.195h0.176v1.84h-0.176v-0.279
			c0-0.361-0.264-0.609-0.59-0.609h-0.255v2.545c0,0.166,0.071,0.244,0.211,0.244h0.396c0.237,0,0.379-0.043,0.554-0.193
			c0.187-0.166,0.317-0.543,0.38-1.115h0.158v1.504h-2.958v-0.15h0.115c0.22,0,0.325-0.158,0.325-0.465v-4.771
			c0.009-0.211-0.009-0.395-0.344-0.432h-0.097v-0.139h2.852v1.336h-0.158c-0.07-0.713-0.307-1.143-0.942-1.143H87.122z"/>
		<path fill="#FFFFFF" d="M93.819,62.92c-0.238,0.328-0.564,0.486-0.995,0.486c-0.141,0-0.361-0.027-0.651-0.07l-0.493-0.072v-1.459
			h0.159c0.025,0.342,0.123,0.66,0.29,0.949c0.176,0.291,0.405,0.441,0.695,0.441c0.52,0,0.757-0.389,0.757-0.846
			c0-0.537-0.317-1.066-0.713-1.479c-0.563-0.6-1.294-1.24-1.294-2.148c0-0.412,0.132-0.758,0.406-1.039
			c0.271-0.289,0.606-0.43,1.021-0.43c0.281,0,0.598,0.043,0.958,0.123v1.188h-0.166c-0.028-0.289-0.115-0.545-0.248-0.766
			c-0.132-0.219-0.333-0.334-0.606-0.334c-0.695-0.01-0.958,0.898-0.537,1.566c0.273,0.457,0.688,0.826,1.074,1.24
			c0.396,0.414,0.703,0.959,0.703,1.533C94.179,62.227,94.056,62.596,93.819,62.92z"/>
		<path fill="#FFFFFF" d="M98.422,57.352v0.139h-0.045c-0.334,0.037-0.352,0.221-0.343,0.432v4.771c0,0.244,0.009,0.439,0.326,0.465
			h0.078v0.15h-1.681v-0.15h0.104c0.335-0.025,0.361-0.221,0.353-0.465v-4.771c0.009-0.211-0.018-0.395-0.37-0.432h-0.061v-0.139
			H98.422z"/>
	</g>
</g>
</svg>
