<?xml version="1.0" encoding="utf-8"?>
<!-- Generator: Adobe Illustrator 28.4.1, SVG Export Plug-In . SVG Version: 6.00 Build 0)  -->
<svg version="1.0" id="Layer_1" xmlns="http://www.w3.org/2000/svg" xmlns:xlink="http://www.w3.org/1999/xlink" x="0px" y="0px"
	 viewBox="0 0 237.34 49.14" style="enable-background:new 0 0 237.34 49.14;" xml:space="preserve">
<style type="text/css">
	.st0{fill:#353535;}
	.st1{fill-rule:evenodd;clip-rule:evenodd;fill:#27A8E0;}
	.st2{fill-rule:evenodd;clip-rule:evenodd;fill:#211E1F;}
	.st3{fill-rule:evenodd;clip-rule:evenodd;fill:#E61088;}
	.st4{fill-rule:evenodd;clip-rule:evenodd;fill:#F8EC1D;}
</style>
<g>
	<g>
		<g>
			<path class="st0" d="M49.21,27.94c-7.39,0-9.24-1.88-9.24-9.39v-3.19c0-7.27,1.85-9.21,9.17-9.21h0.59c6.58,0,8.8,1.6,8.8,6.45
				v0.72h-5.29v-0.44c0-1.82-0.66-2.47-3.54-2.47h-0.37c-3.19,0-3.82,0.81-3.82,5.04v3.1c0,4.07,0.66,5.07,3.88,5.07h0.41
				c3.04,0,3.73-0.78,3.73-2.97v-0.66h-4.45v-3.94h9.61v4.04c0,6.26-1.82,7.86-8.92,7.86H49.21z"/>
			<path class="st0" d="M125.96,27.69H110.3V6.4h15.34v4.17h-9.89v4.29h9.24v3.95h-9.24v4.64h10.21V27.69z"/>
			<path class="st0" d="M182.35,27.69h-5.14L177.4,11h-0.12l-5.39,16.69h-4.98L161.59,11h-0.13l0.19,16.69h-5.1V6.4h8.24l4.67,15.69
				h0.09l4.67-15.69h8.14V27.69z"/>
			<path class="st0" d="M222.65,27.69h-5.48V10.66h-5.82V6.4h17.1v4.26h-5.79V27.69z"/>
			<polygon class="st0" points="202.42,6.4 194.81,6.4 187.86,27.69 193.47,27.69 193.84,26.4 193.84,26.4 193.85,26.35 
				194.66,23.56 194.66,23.56 195.81,19.55 195.79,19.55 198.4,10.58 198.4,10.58 198.4,10.58 198.48,10.31 198.63,10.31 
				199.34,12.77 202.45,23.56 202.45,23.56 203.64,27.69 209.44,27.69 			"/>
			<g>
				<path class="st0" d="M83.72,9.02V6.4h-5.48v5.45C80.14,11.06,81.97,10.11,83.72,9.02z"/>
				<path class="st0" d="M70.66,14.18V6.4h-5.48v8.52C67.03,14.79,68.86,14.54,70.66,14.18z"/>
				<path class="st0" d="M78.24,15.5v4.3c0,3.26-0.44,3.82-3.57,3.82H74.2c-3.1,0-3.54-0.56-3.54-3.82v-2.16
					c-1.8,0.33-3.62,0.55-5.48,0.67v2.03c0,6.08,1.5,7.61,8.95,7.61h0.6c7.52,0,8.99-1.53,8.99-7.61V13
					C81.96,13.96,80.13,14.8,78.24,15.5z"/>
			</g>
			<path class="st1" d="M76.96,15.26c-4.68,1.66-9.78,2.53-15.22,2.46l-0.97-0.01l0.03-2.03l0.97,0.01
				c5.44,0.07,10.55-0.88,15.23-2.62c6.18-2.27,11.49-6.03,15.59-10.68l1.65,1.51C89.69,8.92,83.75,12.92,76.96,15.26"/>
			<path class="st0" d="M96.08,23.4v-17h-3.35c-0.69,0.66-1.4,1.29-2.12,1.91v19.39h14V23.4H96.08z"/>
			<path class="st0" d="M146.72,18.73v-0.13c2.26-0.47,3.07-2.13,3.07-5.45v-0.5c0-4.51-1.28-6.26-7.33-6.26h-10.33v21.29h5.35
				v-3.68v-2.99v-3.98V13v-2.5h3.76c2.54,0,3.16,0.44,3.16,2.88v0.66c0,2.41-0.63,3.01-3.13,3.01h-1.54v3.98h0.63
				c3.51,0,4.07,0.47,4.07,3.66v3.01h5.38v-3.45C149.82,20.21,149.29,19.2,146.72,18.73z"/>
			<g>
				<path class="st0" d="M232.36,17.69c-2.75,0-4.98,2.24-4.98,4.99c0,2.75,2.24,4.99,4.98,4.99c2.75,0,4.98-2.24,4.98-4.99
					C237.34,19.93,235.11,17.69,232.36,17.69z M232.36,27.14c-2.46,0-4.46-2-4.46-4.46c0-2.46,2-4.46,4.46-4.46
					c2.46,0,4.46,2,4.46,4.46C236.82,25.14,234.82,27.14,232.36,27.14z"/>
				<path class="st0" d="M234.28,21.78v-0.14c0-1.07-0.29-1.4-1.61-1.4h-2.23v4.87h0.92v-1.09v-0.62V22.7v-0.89v-0.87h1.1
					c0.74,0,0.89,0.11,0.89,0.82v0.16c0,0.6-0.17,0.78-0.78,0.78h-0.62v0.69h0.42c0.86,0,0.99,0.12,0.99,1.04v0.67h0.92v-0.83
					c0-0.94-0.13-1.17-0.7-1.27v-0.03C234.07,22.88,234.28,22.54,234.28,21.78z"/>
			</g>
			<g>
				<path class="st2" d="M17.1,17.04v17.04c9.3,0,16.99-6.42,16.99-17.04L17.1,17.04z"/>
				<path class="st3" d="M16.99,17.04h16.99C33.98,7.67,27.11,0,16.99,0V17.04z"/>
				<path class="st1" d="M17.1,17.04V0C7.16,0,0,6.82,0,17.04L17.1,17.04z"/>
				<path class="st4" d="M17.1,17.04H0c0,9.38,6.95,17.04,17.1,17.04V17.04z"/>
			</g>
		</g>
	</g>
	<g>
		<path class="st0" d="M50.75,45.89h-6.6L42.79,49h-1.83l5.62-12.42h1.76L53.98,49h-1.86L50.75,45.89z M50.13,44.47l-2.68-6.08
			l-2.68,6.08H50.13z"/>
		<path class="st0" d="M73.02,49L73,39.95l-4.49,7.54h-0.82L63.21,40V49h-1.7V36.58h1.45l5.18,8.73l5.11-8.73h1.45L74.72,49H73.02z"
			/>
		<path class="st0" d="M94.18,43.65c0.41,0.53,0.62,1.19,0.62,2c0,1.08-0.41,1.9-1.22,2.48C92.77,48.71,91.59,49,90.05,49h-5.93
			V36.58h5.57c1.42,0,2.52,0.28,3.29,0.85s1.16,1.35,1.16,2.36c0,0.65-0.15,1.21-0.45,1.68c-0.3,0.47-0.71,0.83-1.22,1.08
			C93.2,42.76,93.76,43.12,94.18,43.65z M85.89,38.02v3.97h3.64c0.91,0,1.61-0.17,2.1-0.51c0.49-0.34,0.74-0.83,0.74-1.48
			c0-0.65-0.25-1.14-0.74-1.48c-0.49-0.34-1.19-0.51-2.1-0.51H85.89z M92.24,47.06c0.51-0.33,0.76-0.85,0.76-1.56
			c0-1.38-1.01-2.08-3.03-2.08h-4.08v4.13h4.08C90.98,47.56,91.74,47.4,92.24,47.06z"/>
		<path class="st0" d="M111.14,45.89h-6.6l-1.37,3.1h-1.83l5.62-12.42h1.76L114.37,49h-1.86L111.14,45.89z M110.52,44.47l-2.68-6.08
			l-2.68,6.08H110.52z"/>
		<path class="st0" d="M121.89,36.58h1.77v10.87h6.72V49h-8.5V36.58z"/>
		<path class="st0" d="M146.07,45.89h-6.6L138.1,49h-1.83l5.62-12.42h1.76L149.29,49h-1.86L146.07,45.89z M145.45,44.47l-2.68-6.08
			l-2.68,6.08H145.45z"/>
		<path class="st0" d="M156.6,48.67c-0.64-0.31-1.15-0.75-1.54-1.32l1.03-1.21c0.69,0.98,1.55,1.47,2.59,1.47
			c0.7,0,1.23-0.21,1.59-0.64c0.36-0.43,0.54-1.05,0.54-1.88v-6.97h-4.49v-1.54h6.24v8.43c0,1.37-0.33,2.4-0.98,3.1
			c-0.66,0.69-1.62,1.04-2.9,1.04C157.93,49.14,157.24,48.98,156.6,48.67z"/>
	</g>
</g>
</svg>
