<?xml version="1.0" encoding="UTF-8"?>
<svg id="Layer_1" data-name="Layer 1" xmlns="http://www.w3.org/2000/svg" version="1.1" viewBox="0 0 162 44.2">
  <defs>
    <style>
      .cls-1 {
        fill: #000;
        stroke-width: 0px;
      }
    </style>
  </defs>
  <path class="cls-1" d="M17,39.9h-2L6.9,5.2c-.5-2-1.1-2.7-2.5-2.7h-.4v-.9h10.5v.9h-.2c-1.3,0-1.9.7-1.7,1.9l5.1,25.2,2-8.4c1.1-4.5,1.9-8.3,2.7-11.5.7-3.2,1.1-5,1.1-5.3,0-1.4-.6-1.9-2.6-1.9v-.9h8.1v.9c-1.9,0-3.3,1.3-3.7,3.1l-8.3,34.4Z"/>
  <path class="cls-1" d="M35.4,18.8c0-2.1-.2-4-2.8-4.2-2,0-2.8,1.3-2.8,2.4s.4,1.3.4,1.8c0,1.4-.9,2.2-2.2,2.2s-2.5-1-2.5-2.4.8-2.6,2.4-3.6c1.6-1,3.5-1.4,5.7-1.4,4.1,0,6.6,2.1,6.6,6.4v17.2c0,1.1.6,1.7,1.9,1.7v1h-6.6v-1.5c-1,1.2-2.5,1.9-4.6,1.9-3.6,0-6.4-2.8-6.4-6.4,0-2.1.6-3.7,2-4.8.7-.6,1.3-1,1.9-1.3.6-.3,1.4-.8,2.5-1.3,1.1-.5,1.9-1,2.5-1.3,1.1-.5,1.8-1.1,2.1-1.8v-4.6ZM35.4,24.7c-.4.5-1.2,1.1-2.3,1.8-1.1.7-1.9,1.2-2.3,1.7-1.1,1.1-1.6,2.9-1.6,5.2s1.1,5.1,3.8,5.1,2.3-1.1,2.4-1.9c0,0,0-12,0-12Z"/>
  <path class="cls-1" d="M49.5,1.6v14.1c.8-1.2,2.9-2.1,4.9-2.1,3.9,0,6.7,2.2,6.7,6.5v17.1c0,1.1.5,1.7,1.4,1.7h.6v1h-8.8v-1h.6c.8,0,1.5-.1,1.5-1.7v-17.6c0-2.5-1.2-4.3-3.5-4.3s-3.4,1.5-3.4,3.5v18.4c0,1.1.5,1.7,1.5,1.7h.3v1h-8.5v-1h.5c.8,0,1.6-.1,1.6-1.7V4.1c0-1.4-.6-1.6-1.6-1.6h-.7v-.9h7.1Z"/>
  <path class="cls-1" d="M63.7,32.5h1.1c.1,1.8.6,6.7,4.8,6.7s3.3-1.6,3.3-3.7c0-6.2-9.5-8.2-9.5-15.4s.7-3.5,2.2-4.8c1.5-1.2,3.2-1.9,5.1-1.9s3.3.3,5,.9v6.2h-1.2c-.3-4.1-1.7-6.1-4.2-6.1s-3.3,1.6-3.3,3.4c0,5.3,9.6,8.2,9.6,15.2s-.7,3.7-2.1,5.1c-1.4,1.4-3.1,2-4.9,2s-4.3-.3-5.9-1.1v-6.6h0Z"/>
  <path class="cls-1" d="M76.9,14h7.1v23.2c0,1.1.5,1.7,1.5,1.7h.6v1h-9v-1h.6c.8,0,1.6-.1,1.6-1.7v-20.7c0-1.4-.6-1.6-1.6-1.6h-.7s0-.9,0-.9ZM81.2,7.3c1.3,0,2.3,1.1,2.3,2.3s-1,2.5-2.3,2.5-2.3-1-2.3-2.5,1.1-2.3,2.3-2.3Z"/>
  <path class="cls-1" d="M88.8,1.6h10.7c5.8,0,9.7,2.7,9.7,8.4s-.7,4.2-2.1,6.1c-1.4,1.9-3.2,3.1-5.3,3.4,2.5.5,4.6,1.8,6.2,3.7,1.6,2,2.4,4.2,2.4,6.6s-1,5.1-2.8,7.1c-1.9,1.9-4.2,2.9-6.9,2.9h-11.8v-1h.6c1,0,1.6-.2,1.8-.9.3-.7.3-1,.3-2.1V5.3c0-1.4,0-2.5-2.1-2.8h-.5s0-.9,0-.9ZM101.8,3.9c-1.4-1-2.3-1.2-3.7-1.2h-1.4v16.3h2.3c1.3,0,2.5-.8,3.4-2.4,1-1.6,1.5-3.6,1.5-6,0-3.6-.7-5.9-2.1-6.8ZM96.7,20.4v16.8c0,1,.5,1.5,1.4,1.5h1.5c3.4,0,5.1-3.3,5.1-8.6s-1-7-2.4-8.1c-1.4-1.2-2.5-1.6-3.4-1.6h-2.1Z"/>
  <path class="cls-1" d="M122.1,18.8c0-2.1-.2-4-2.8-4.2-2,0-2.8,1.3-2.8,2.4s.4,1.3.4,1.8c0,1.4-.9,2.2-2.2,2.2s-2.5-1-2.5-2.4.8-2.6,2.4-3.6c1.6-1,3.5-1.4,5.7-1.4,4.1,0,6.6,2.1,6.6,6.4v17.2c0,1.1.6,1.7,1.9,1.7v1h-6.6v-1.5c-1,1.2-2.5,1.9-4.6,1.9-3.6,0-6.4-2.8-6.4-6.4,0-2.1.6-3.7,2-4.8.7-.6,1.3-1,1.9-1.3.6-.3,1.4-.8,2.5-1.3,1.1-.5,1.9-1,2.5-1.3,1.1-.5,1.8-1.1,2.1-1.8v-4.6h0ZM122.1,24.7c-.4.5-1.2,1.1-2.3,1.8-1.1.7-1.9,1.2-2.3,1.7-1.1,1.1-1.6,2.9-1.6,5.2s1.1,5.1,3.8,5.1,2.3-1.1,2.4-1.9v-12Z"/>
  <path class="cls-1" d="M135.8,8.2v5.8h3v1.3h-3v20c0,2.2.8,3.3,2.6,3.3s1.7-.6,2.3-1.7l.7.6c-1.2,1.9-2.8,2.8-4.7,2.8-3.4,0-5.7-1.9-5.7-5.8V15.3h-2.5v-.9c1-.2,1.8-.4,2.3-.7,1.8-1.1,3.1-2.9,3.9-5.5h1.1Z"/>
  <path class="cls-1" d="M140.8,14h7.1v23.2c0,1.1.5,1.7,1.5,1.7h.6v1h-9v-1h.6c.8,0,1.6-.1,1.6-1.7v-20.7c0-1.4-.6-1.6-1.6-1.6h-.7v-.9Z"/>
  <g>
    <path class="cls-1" d="M155.9,38.7l-.5-1.5c.3-.2.4-.5.4-.8,0-.6-.4-.9-.9-.9h-1.1c0,0,0,0,0,0,.2,0,.2.1.2.3v2.9c0,.1,0,.3-.2.3h0c0,0,1,0,1,0h0c0,0,0,0,0,0-.1,0-.2,0-.2-.3v-1.4h.2c0,0,.1,0,.2.2l.4,1.5c0,0,0,.1.2.1h.6c-.2,0-.2-.2-.3-.4ZM155.3,36.9c0,.2-.2.3-.4.3s0,0-.2,0v-1.6h.2c.4,0,.5.3.5.8s0,.4-.1.6Z"/>
    <path class="cls-1" d="M155.1,34.4c-1.6,0-2.9,1.3-2.9,2.9s1.3,2.9,2.9,2.9,2.9-1.3,2.9-2.9-1.3-2.9-2.9-2.9ZM155.1,39.8c-1.4,0-2.6-1.2-2.6-2.6s1.2-2.6,2.6-2.6,2.6,1.2,2.6,2.6-1.2,2.6-2.6,2.6Z"/>
  </g>
  <path class="cls-1" d="M71.2,40c0-.2,0-.4,0-.6-1.1.1-2,.4-2.9.9-1,.6-1.6,1.4-1.6,2.3s.8,1.6,1.7,1.6,1.4-.6,1.4-1.4-.3-.9-.3-1.2c0-.7.4-1.5,1.6-1.6Z"/>
</svg>