<?xml version="1.0" encoding="utf-8"?>
<!-- Generator: Adobe Illustrator 28.4.1, SVG Export Plug-In . SVG Version: 6.00 Build 0)  -->
<svg version="1.0" id="Layer_1" xmlns="http://www.w3.org/2000/svg" xmlns:xlink="http://www.w3.org/1999/xlink" x="0px" y="0px"
	 viewBox="0 0 293 156" style="enable-background:new 0 0 293 156;" xml:space="preserve">
<style type="text/css">
	.st0{fill:#FFFFFF;}
</style>
<path class="st0" d="M182.65,63.12c0-9.69-7.88-17.57-17.57-17.57c-5.78,0-10.9,2.82-14.11,7.14c-3.2-4.32-8.32-7.14-14.1-7.14
	c-9.69,0-17.57,7.88-17.57,17.57v12.57c0,1.91,1.55,3.46,3.46,3.46c1.91,0,3.46-1.55,3.46-3.46V63.12c0-5.87,4.77-10.64,10.64-10.64
	c5.87,0,10.64,4.77,10.64,10.64v12.57v14.56c0,1.91,1.55,3.47,3.46,3.47c1.91,0,3.46-1.55,3.46-3.47V75.69V63.12
	c0-5.87,4.77-10.64,10.64-10.64c5.87,0,10.64,4.77,10.64,10.64v12.57v14.56c0,1.91,1.55,3.47,3.46,3.47c1.91,0,3.46-1.55,3.46-3.47
	V75.69L182.65,63.12C182.65,63.12,182.65,63.12,182.65,63.12z"/>
<circle class="st0" cx="123.15" cy="86.31" r="2.96"/>
<g>
	<path class="st0" d="M192.59,70.89c0-11.61,7.66-22.25,19.75-22.25c12.01,0,19.11,10.08,19.11,21.12c0,3.06-1.53,4.27-4.6,4.27
		h-25.32c0.4,6.85,5.08,11.77,11.77,11.77c3.87,0,7.02-1.21,10.8-4.27c1.21-0.89,2.26-1.37,3.14-1.37c2.1,0,3.55,1.53,3.55,3.63
		c0,1.61-1.21,3.39-3.14,4.84c-3.31,2.5-8.87,4.51-14.67,4.51C200.33,93.14,192.59,83.55,192.59,70.89z M222.82,67.82
		c-0.32-6.93-4.76-12.17-10.64-12.17c-5.81,0-10.24,5.16-10.64,12.17H222.82z"/>
	<path class="st0" d="M243.78,88.22V56.78h-2.74c-2.82,0-4.19-1.45-4.19-3.71c0-2.26,1.37-3.63,4.03-3.63h2.9v-9.19
		c0-5.72,3.63-10.08,9.35-10.08h5.52c3.14,0,5.24,1.45,5.24,3.79s-1.29,3.79-4.03,3.79h-4.95c-1.77,0-2.82,1.29-2.82,3.22v8.47h4.68
		c2.18,0,3.87,1.29,3.87,3.63c0,2.42-1.69,3.71-3.87,3.71h-4.68v31.44c0,2.66-1.61,4.6-4.19,4.6
		C245.4,92.82,243.78,90.88,243.78,88.22z"/>
</g>
<g>
	<path class="st0" d="M127.78,103.03c0.71,0.69,1.06,1.71,1.06,3.07v5.3h-2.69v-4.89c0-0.73-0.16-1.28-0.48-1.64
		c-0.32-0.36-0.79-0.54-1.39-0.54c-0.68,0-1.22,0.21-1.62,0.63c-0.4,0.42-0.6,1.04-0.6,1.87v4.58h-2.69v-9.26h2.57v1.09
		c0.36-0.39,0.8-0.69,1.33-0.9c0.53-0.21,1.11-0.32,1.74-0.32C126.15,102,127.07,102.34,127.78,103.03z"/>
	<path class="st0" d="M143.37,102.14v9.26h-2.55v-1.1c-0.36,0.4-0.78,0.71-1.27,0.92c-0.49,0.21-1.03,0.32-1.6,0.32
		c-1.22,0-2.18-0.35-2.89-1.05c-0.71-0.7-1.07-1.74-1.07-3.12v-5.23h2.69v4.84c0,1.49,0.63,2.24,1.88,2.24
		c0.64,0,1.16-0.21,1.55-0.63c0.39-0.42,0.59-1.04,0.59-1.87v-4.58H143.37z"/>
	<path class="st0" d="M154.61,110.95c-0.26,0.2-0.59,0.34-0.97,0.44c-0.38,0.1-0.79,0.15-1.21,0.15c-1.1,0-1.95-0.28-2.56-0.84
		c-0.6-0.56-0.9-1.39-0.9-2.48v-3.81h-1.43v-2.07h1.43v-2.26h2.69v2.26h2.31v2.07h-2.31v3.77c0,0.39,0.1,0.69,0.3,0.9
		c0.2,0.21,0.48,0.32,0.85,0.32c0.42,0,0.79-0.11,1.08-0.34L154.61,110.95z"/>
	<path class="st0" d="M162.77,102.34c0.55-0.23,1.17-0.34,1.89-0.34v2.48c-0.3-0.02-0.5-0.03-0.6-0.03c-0.77,0-1.37,0.22-1.81,0.65
		c-0.44,0.43-0.65,1.08-0.65,1.94v4.37h-2.69v-9.26h2.57v1.22C161.79,102.91,162.22,102.57,162.77,102.34z"/>
	<path class="st0" d="M169.16,100.42c-0.31-0.29-0.46-0.64-0.46-1.07c0-0.42,0.16-0.78,0.46-1.07s0.71-0.43,1.21-0.43
		c0.49,0,0.9,0.14,1.21,0.41c0.31,0.28,0.46,0.62,0.46,1.03c0,0.45-0.15,0.82-0.46,1.11c-0.31,0.29-0.71,0.44-1.21,0.44
		C169.88,100.85,169.47,100.7,169.16,100.42z M169.03,102.14h2.69v9.26h-2.69V102.14z"/>
	<path class="st0" d="M185.41,111.17c-0.67-0.21-1.2-0.48-1.58-0.8l0.55-0.96c0.38,0.3,0.85,0.54,1.43,0.73
		c0.57,0.19,1.17,0.28,1.79,0.28c0.83,0,1.44-0.13,1.83-0.39c0.4-0.26,0.59-0.62,0.59-1.09c0-0.33-0.11-0.59-0.33-0.78
		c-0.22-0.19-0.49-0.33-0.83-0.43c-0.33-0.1-0.77-0.19-1.33-0.28c-0.73-0.14-1.33-0.28-1.77-0.42c-0.45-0.14-0.83-0.39-1.15-0.73
		c-0.32-0.34-0.47-0.82-0.47-1.43c0-0.76,0.32-1.38,0.95-1.86c0.63-0.48,1.51-0.72,2.63-0.72c0.59,0,1.17,0.08,1.76,0.23
		c0.59,0.16,1.07,0.36,1.45,0.61l-0.53,0.98c-0.75-0.52-1.64-0.77-2.67-0.77c-0.78,0-1.37,0.14-1.76,0.41
		c-0.4,0.28-0.59,0.64-0.59,1.09c0,0.34,0.11,0.62,0.34,0.83c0.22,0.21,0.5,0.36,0.84,0.46c0.33,0.1,0.79,0.2,1.38,0.3
		c0.72,0.14,1.3,0.28,1.74,0.41c0.44,0.14,0.81,0.37,1.12,0.71c0.31,0.33,0.46,0.79,0.46,1.38c0,0.79-0.33,1.42-0.99,1.89
		c-0.66,0.46-1.58,0.7-2.75,0.7C186.78,111.49,186.08,111.38,185.41,111.17z"/>
	<path class="st0" d="M197.63,110.9c-0.71-0.39-1.26-0.94-1.66-1.64c-0.4-0.71-0.6-1.5-0.6-2.38s0.2-1.68,0.6-2.38
		c0.4-0.7,0.96-1.25,1.66-1.64c0.71-0.39,1.51-0.59,2.4-0.59c0.78,0,1.48,0.15,2.09,0.46c0.61,0.3,1.1,0.75,1.45,1.33l-0.91,0.62
		c-0.3-0.45-0.68-0.78-1.14-1.01c-0.46-0.22-0.96-0.34-1.5-0.34c-0.65,0-1.24,0.15-1.76,0.44c-0.52,0.29-0.93,0.71-1.22,1.25
		c-0.29,0.54-0.44,1.15-0.44,1.84c0,0.7,0.15,1.32,0.44,1.85s0.7,0.95,1.22,1.24c0.52,0.29,1.11,0.44,1.76,0.44
		c0.54,0,1.04-0.11,1.5-0.33c0.46-0.22,0.84-0.55,1.14-1l0.91,0.62c-0.36,0.59-0.84,1.03-1.46,1.33c-0.62,0.3-1.31,0.46-2.08,0.46
		C199.14,111.49,198.34,111.29,197.63,110.9z"/>
	<path class="st0" d="M208.73,100.11c-0.17-0.17-0.26-0.38-0.26-0.62c0-0.23,0.09-0.43,0.26-0.6c0.17-0.17,0.38-0.26,0.64-0.26
		s0.46,0.08,0.64,0.25c0.17,0.17,0.26,0.36,0.26,0.59c0,0.25-0.09,0.46-0.26,0.64c-0.17,0.17-0.38,0.26-0.64,0.26
		S208.9,100.28,208.73,100.11z M208.75,102.34h1.22v9.06h-1.22V102.34z"/>
	<path class="st0" d="M224.04,107.25h-7.58c0.07,0.94,0.43,1.7,1.08,2.28c0.65,0.58,1.48,0.87,2.48,0.87c0.56,0,1.08-0.1,1.55-0.3
		c0.47-0.2,0.88-0.5,1.22-0.89l0.69,0.79c-0.4,0.48-0.9,0.85-1.51,1.1c-0.6,0.25-1.27,0.38-1.99,0.38c-0.93,0-1.75-0.2-2.47-0.59
		s-1.28-0.94-1.68-1.64c-0.4-0.7-0.6-1.49-0.6-2.38s0.19-1.68,0.58-2.38c0.38-0.7,0.91-1.25,1.58-1.64s1.43-0.59,2.26-0.59
		c0.84,0,1.59,0.2,2.26,0.59c0.67,0.39,1.19,0.93,1.57,1.63c0.38,0.69,0.57,1.49,0.57,2.38L224.04,107.25z M217.47,104.16
		c-0.59,0.56-0.93,1.28-1.01,2.18h6.42c-0.08-0.9-0.42-1.62-1.01-2.18c-0.59-0.56-1.33-0.84-2.21-0.84
		C218.79,103.33,218.06,103.6,217.47,104.16z"/>
	<path class="st0" d="M236.65,103.27c0.67,0.66,1.01,1.62,1.01,2.88v5.25h-1.22v-5.13c0-0.94-0.24-1.66-0.71-2.15
		c-0.47-0.49-1.14-0.74-2.01-0.74c-0.98,0-1.75,0.29-2.32,0.87c-0.57,0.58-0.85,1.38-0.85,2.4v4.75h-1.22v-9.06h1.17v1.67
		c0.33-0.55,0.79-0.98,1.39-1.28s1.28-0.46,2.06-0.46C235.07,102.28,235.98,102.61,236.65,103.27z"/>
	<path class="st0" d="M245.14,110.9c-0.71-0.39-1.26-0.94-1.66-1.64c-0.4-0.71-0.6-1.5-0.6-2.38s0.2-1.68,0.6-2.38
		c0.4-0.7,0.96-1.25,1.66-1.64c0.71-0.39,1.51-0.59,2.4-0.59c0.78,0,1.48,0.15,2.09,0.46s1.1,0.75,1.45,1.33l-0.91,0.62
		c-0.3-0.45-0.68-0.78-1.14-1.01c-0.46-0.22-0.96-0.34-1.5-0.34c-0.65,0-1.24,0.15-1.76,0.44c-0.52,0.29-0.93,0.71-1.22,1.25
		c-0.29,0.54-0.44,1.15-0.44,1.84c0,0.7,0.15,1.32,0.44,1.85s0.7,0.95,1.22,1.24c0.52,0.29,1.11,0.44,1.76,0.44
		c0.54,0,1.04-0.11,1.5-0.33c0.46-0.22,0.84-0.55,1.14-1l0.91,0.62c-0.36,0.59-0.84,1.03-1.46,1.33c-0.62,0.3-1.31,0.46-2.08,0.46
		C246.64,111.49,245.84,111.29,245.14,110.9z"/>
	<path class="st0" d="M263.98,107.25h-7.58c0.07,0.94,0.43,1.7,1.08,2.28c0.65,0.58,1.48,0.87,2.48,0.87c0.56,0,1.08-0.1,1.55-0.3
		c0.47-0.2,0.88-0.5,1.22-0.89l0.69,0.79c-0.4,0.48-0.9,0.85-1.51,1.1c-0.6,0.25-1.27,0.38-1.99,0.38c-0.93,0-1.75-0.2-2.47-0.59
		s-1.28-0.94-1.68-1.64c-0.4-0.7-0.6-1.49-0.6-2.38s0.19-1.68,0.58-2.38c0.38-0.7,0.91-1.25,1.58-1.64
		c0.67-0.39,1.43-0.59,2.26-0.59c0.84,0,1.59,0.2,2.26,0.59c0.67,0.39,1.19,0.93,1.57,1.63c0.38,0.69,0.57,1.49,0.57,2.38
		L263.98,107.25z M257.41,104.16c-0.59,0.56-0.93,1.28-1.01,2.18h6.42c-0.08-0.9-0.42-1.62-1.01-2.18
		c-0.59-0.56-1.33-0.84-2.21-0.84C258.74,103.33,258.01,103.6,257.41,104.16z"/>
</g>
<path class="st0" d="M206.98,125c-2.27-0.03-4.56-0.09-6.81-0.18c-3.62-0.15-7.22-0.37-10.72-0.68c-1.82-0.16-3.59-0.33-5.27-0.52
	c-1.71-0.19-3.45-0.41-5.19-0.65l-2.5-0.36c-0.7-0.1-1.4-0.19-2.09-0.29l-0.38-0.05c-0.55-0.08-1.1-0.15-1.66-0.22l-0.83-0.11
	c-0.82-0.11-1.64-0.21-2.47-0.31c-0.72-0.09-1.4-0.17-2.09-0.25l-0.44-0.05c-0.59-0.07-1.19-0.14-1.78-0.2l-3.26-0.35
	c-0.84-0.09-1.69-0.17-2.54-0.25c-3.98-0.36-7.24-0.61-10.25-0.77c-1.62-0.09-3.32-0.17-5.18-0.23l-1.3-0.04l-2.6-0.05l-1.3-0.01
	c-3.8-0.01-7.19,0.09-10.38,0.33c-1.77,0.13-3.48,0.3-5.09,0.5l-0.63,0.08l-0.93,0.13l-0.3,0.05c-0.05,0.01-0.1,0.01-0.16,0.01
	c-0.12,0-0.26-0.02-0.34-0.07l-0.88-0.49c-0.18-0.1-0.28-0.28-0.24-0.45s0.2-0.32,0.41-0.36l0.79-0.15l0.96-0.18
	c0,0,1.03-0.17,1.23-0.2l0.73-0.11l0.98-0.14l1-0.13l1.34-0.16l0.67-0.07c3.35-0.35,7.01-0.57,10.88-0.64
	c1.94-0.04,3.72-0.05,5.45-0.03l2.03,0.03l2.03,0.05l1.35,0.05c0.34,0.01,0.68,0.03,1.02,0.04c0,0,1.37,0.06,1.68,0.07l0.51,0.03
	c0.72,0.04,1.45,0.07,2.17,0.12c1.85,0.1,3.71,0.24,5.31,0.37c0.88,0.07,1.76,0.15,2.64,0.22l1.45,0.13
	c0.39,0.04,0.79,0.07,1.17,0.11l0.79,0.08c0.61,0.06,1.21,0.12,1.82,0.19l0.68,0.07c0.64,0.07,1.28,0.14,1.91,0.21l0.38,0.04
	c0.74,0.08,1.47,0.17,2.2,0.26c0.85,0.1,1.71,0.21,2.56,0.32l0.54,0.07c0.67,0.09,1.34,0.17,2.01,0.26l2.51,0.34
	c0.82,0.11,1.64,0.21,2.46,0.31c0.82,0.1,1.65,0.2,2.48,0.29c1.7,0.18,3.4,0.35,5.03,0.49c3.35,0.29,6.79,0.51,10.24,0.66
	c2.73,0.12,5.47,0.2,8.14,0.24c0.75,0.01,1.5,0.02,2.25,0.02c7.14,0.04,14.14-0.22,20.81-0.78c0.86-0.07,1.71-0.15,2.56-0.23
	c0.85-0.08,1.7-0.17,2.55-0.26c1.63-0.18,3.32-0.4,5.03-0.64c1.65-0.24,3.3-0.51,4.91-0.8c1.64-0.3,3.23-0.63,4.74-0.98
	c1.56-0.36,3.07-0.76,4.49-1.18c1.42-0.42,2.82-0.89,4.15-1.39c0.59-0.23,1.17-0.46,1.73-0.7c0.08-0.04,0.18-0.05,0.27-0.05
	c0.07,0,0.13,0.01,0.19,0.03l0.76,0.24c0.2,0.06,0.33,0.21,0.36,0.38c0.02,0.17-0.07,0.34-0.25,0.43c-0.55,0.29-1.12,0.57-1.72,0.85
	c-1.21,0.56-2.55,1.09-4.09,1.64c-1.39,0.48-2.91,0.96-4.53,1.4c-1.53,0.42-3.16,0.81-4.84,1.18c-1.58,0.34-3.28,0.67-5.06,0.98
	c-1.54,0.27-3.25,0.53-5.21,0.79c-0.88,0.12-1.76,0.23-2.64,0.34c-0.89,0.1-1.78,0.2-2.67,0.29c-1.8,0.18-3.61,0.35-5.38,0.48
	c-1.82,0.13-3.64,0.25-5.42,0.34c-0.91,0.05-1.81,0.09-2.72,0.12c-0.91,0.03-1.82,0.06-2.72,0.09c-1.81,0.05-3.64,0.07-5.45,0.08
	C209.68,125.02,208.33,125.01,206.98,125z"/>
<g>
	<g>
		<path class="st0" d="M259.79,92.61c-2.14,0-3.88-1.74-3.88-3.88s1.74-3.88,3.88-3.88c2.14,0,3.88,1.74,3.88,3.88
			S261.93,92.61,259.79,92.61z M259.79,85.34c-1.87,0-3.39,1.52-3.39,3.39s1.52,3.39,3.39,3.39s3.39-1.52,3.39-3.39
			S261.66,85.34,259.79,85.34z"/>
	</g>
	<g>
		<path class="st0" d="M260.77,90.51l-0.75-1.07c-0.03,0-0.08,0-0.14,0h-0.82v1.06h-0.68v-3.65h1.5c0.32,0,0.59,0.05,0.83,0.16
			c0.24,0.1,0.42,0.25,0.54,0.45c0.13,0.19,0.19,0.43,0.19,0.69c0,0.27-0.07,0.51-0.2,0.71c-0.13,0.2-0.33,0.35-0.58,0.44l0.84,1.2
			H260.77z M260.52,87.62c-0.15-0.12-0.38-0.19-0.67-0.19h-0.79v1.46h0.79c0.3,0,0.52-0.06,0.67-0.19c0.15-0.13,0.23-0.31,0.23-0.54
			C260.75,87.93,260.68,87.75,260.52,87.62z"/>
	</g>
</g>
<g>
	<path class="st0" d="M81.32,84.71l4.03,12.3h1.44l4.08-12.31V67.66h-9.55V84.71z M83.96,86.32c0-0.3,0.25-0.55,0.55-0.55
		c0.3,0,0.55,0.25,0.55,0.55c0,0.3-0.25,0.55-0.55,0.55C84.21,86.87,83.96,86.62,83.96,86.32z M87.31,78.47
		c-0.3,0-0.55-0.25-0.55-0.55c0-0.3,0.25-0.55,0.55-0.55c0.3,0,0.55,0.25,0.55,0.55C87.86,78.23,87.61,78.47,87.31,78.47z
		 M88.38,79.91c0.3,0,0.55,0.25,0.55,0.55c0,0.3-0.25,0.55-0.55,0.55c-0.3,0-0.55-0.25-0.55-0.55
		C87.83,80.16,88.08,79.91,88.38,79.91z M86.69,86.49c0.3,0,0.55,0.25,0.55,0.55c0,0.3-0.25,0.55-0.55,0.55
		c-0.3,0-0.55-0.25-0.55-0.55C86.14,86.74,86.39,86.49,86.69,86.49z M85.66,84.62c0-0.3,0.25-0.55,0.55-0.55
		c0.3,0,0.55,0.25,0.55,0.55c0,0.3-0.25,0.55-0.55,0.55C85.91,85.17,85.66,84.92,85.66,84.62z M87.19,75.05
		c-0.3,0-0.55-0.25-0.55-0.55c0-0.3,0.25-0.55,0.55-0.55c0.3,0,0.55,0.25,0.55,0.55C87.74,74.8,87.49,75.05,87.19,75.05z
		 M86.92,75.77c0.3,0,0.55,0.25,0.55,0.55c0,0.3-0.25,0.55-0.55,0.55s-0.55-0.25-0.55-0.55C86.37,76.02,86.62,75.77,86.92,75.77z
		 M86.58,80.52c0.3,0,0.55,0.25,0.55,0.55c0,0.3-0.25,0.55-0.55,0.55c-0.3,0-0.55-0.25-0.55-0.55
		C86.03,80.77,86.27,80.52,86.58,80.52z M85.79,79.68c-0.3,0-0.55-0.25-0.55-0.55c0-0.3,0.25-0.55,0.55-0.55
		c0.3,0,0.55,0.25,0.55,0.55C86.34,79.43,86.09,79.68,85.79,79.68z M85.53,81.73c0,0.3-0.25,0.55-0.55,0.55
		c-0.3,0-0.55-0.25-0.55-0.55c0-0.3,0.25-0.55,0.55-0.55C85.29,81.18,85.53,81.43,85.53,81.73z M85.37,83.84
		c0,0.3-0.25,0.55-0.55,0.55c-0.3,0-0.55-0.25-0.55-0.55c0-0.3,0.25-0.55,0.55-0.55C85.12,83.29,85.37,83.54,85.37,83.84z
		 M84.19,78.64c-0.3,0-0.55-0.25-0.55-0.55c0-0.3,0.25-0.55,0.55-0.55c0.3,0,0.55,0.25,0.55,0.55
		C84.74,78.39,84.5,78.64,84.19,78.64z M84.96,89.48c-0.3,0-0.55-0.25-0.55-0.55c0-0.3,0.25-0.55,0.55-0.55
		c0.3,0,0.55,0.25,0.55,0.55C85.52,89.23,85.27,89.48,84.96,89.48z M86.06,92.05c-0.3,0-0.55-0.25-0.55-0.55
		c0-0.3,0.25-0.55,0.55-0.55c0.3,0,0.55,0.25,0.55,0.55C86.61,91.8,86.37,92.05,86.06,92.05z M87.03,90.37
		c-0.3,0-0.55-0.25-0.55-0.55c0-0.3,0.25-0.55,0.55-0.55c0.3,0,0.55,0.25,0.55,0.55C87.58,90.13,87.33,90.37,87.03,90.37z
		 M87.29,83.43c0-0.3,0.25-0.55,0.55-0.55c0.3,0,0.55,0.25,0.55,0.55c0,0.3-0.25,0.55-0.55,0.55
		C87.54,83.98,87.29,83.73,87.29,83.43z M88.69,87.83c-0.3,0-0.55-0.25-0.55-0.55c0-0.3,0.25-0.55,0.55-0.55
		c0.3,0,0.55,0.25,0.55,0.55C89.24,87.58,88.99,87.83,88.69,87.83z M88.73,85.7c-0.3,0-0.55-0.25-0.55-0.55
		c0-0.3,0.25-0.55,0.55-0.55c0.3,0,0.55,0.25,0.55,0.55C89.28,85.46,89.03,85.7,88.73,85.7z M89.67,77.62c0,0.3-0.25,0.55-0.55,0.55
		c-0.3,0-0.55-0.25-0.55-0.55c0-0.3,0.25-0.55,0.55-0.55C89.42,77.07,89.67,77.32,89.67,77.62z M88.65,75.17
		c0.3,0,0.55,0.25,0.55,0.55c0,0.3-0.25,0.55-0.55,0.55c-0.3,0-0.55-0.25-0.55-0.55C88.1,75.42,88.34,75.17,88.65,75.17z
		 M88.15,72.54c0.03,0.3-0.2,0.57-0.5,0.6c-0.3,0.03-0.57-0.2-0.6-0.5c-0.03-0.3,0.2-0.57,0.5-0.6
		C87.86,72.01,88.12,72.24,88.15,72.54z M86.88,70.31c0.3,0,0.55,0.25,0.55,0.55c0,0.3-0.25,0.55-0.55,0.55
		c-0.3,0-0.55-0.25-0.55-0.55C86.32,70.55,86.57,70.31,86.88,70.31z M85.91,72.12c0.3,0,0.55,0.25,0.55,0.55
		c0,0.3-0.25,0.55-0.55,0.55c-0.3,0-0.55-0.25-0.55-0.55C85.36,72.37,85.61,72.12,85.91,72.12z M85.63,76.07
		c0,0.3-0.25,0.55-0.55,0.55c-0.3,0-0.55-0.25-0.55-0.55c0-0.3,0.25-0.55,0.55-0.55C85.38,75.52,85.63,75.76,85.63,76.07z
		 M84.38,70.88c0.3,0,0.55,0.25,0.55,0.55c0,0.3-0.25,0.55-0.55,0.55c-0.3,0-0.55-0.25-0.55-0.55
		C83.83,71.13,84.08,70.88,84.38,70.88z M84.18,72.76c0.3,0,0.55,0.25,0.55,0.55c0,0.3-0.25,0.55-0.55,0.55s-0.55-0.25-0.55-0.55
		C83.63,73,83.88,72.76,84.18,72.76z M83.31,75.26c0.3,0,0.55,0.25,0.55,0.55c0,0.3-0.25,0.55-0.55,0.55s-0.55-0.25-0.55-0.55
		C82.76,75.51,83,75.26,83.31,75.26z M82.77,80.51c0.11-0.28,0.43-0.43,0.71-0.32c0.28,0.11,0.43,0.43,0.32,0.71
		c-0.11,0.28-0.43,0.43-0.71,0.32C82.8,81.11,82.66,80.79,82.77,80.51z"/>
	<path class="st0" d="M86.13,98.52c-1.17,0-2.12,0.95-2.12,2.12c0,1.17,0.95,2.12,2.12,2.12s2.12-0.95,2.12-2.12
		C88.25,99.47,87.3,98.52,86.13,98.52z"/>
	<path class="st0" d="M73.4,55.07h-6.42v0.01h-3.02v4.62c0,0.12-0.07,0.23-0.17,0.29l-1.3,0.67l3.25,8.99h-6.61l2.71-8.99
		l-1.43-0.74c-0.02-0.01-0.04-0.04-0.04-0.07v-4.77h-3.02v-0.01h-6.42c-1.19,0-2.17,0.97-2.17,2.17v27.48
		c0,0.42,0.12,0.83,0.36,1.19l9.98,15.22c0.43,0.65,0.65,1.4,0.65,2.17v2.27h5.43v-2.34c0-0.78,0.23-1.53,0.65-2.18l9.37-14.21
		c0.23-0.36,0.36-0.77,0.36-1.19V57.23C75.56,56.04,74.59,55.07,73.4,55.07z M65.27,75.88c0.35,0,0.63,0.28,0.63,0.63
		c0,0.35-0.28,0.63-0.63,0.63c-0.35,0-0.63-0.28-0.63-0.63C64.65,76.17,64.93,75.88,65.27,75.88z M60.9,85.15
		c0.35,0,0.63,0.28,0.63,0.63c0,0.35-0.28,0.63-0.63,0.63c-0.35,0-0.63-0.28-0.63-0.63C60.28,85.43,60.56,85.15,60.9,85.15z
		 M60.19,79.85c-0.35,0-0.63-0.28-0.63-0.63c0-0.35,0.28-0.63,0.63-0.63c0.35,0,0.63,0.28,0.63,0.63
		C60.82,79.56,60.54,79.85,60.19,79.85z M61.09,84c-0.35,0-0.63-0.28-0.63-0.63c0-0.35,0.28-0.63,0.63-0.63
		c0.35,0,0.63,0.28,0.63,0.63C61.72,83.72,61.44,84,61.09,84z M63.04,88.8c0.35,0,0.63,0.28,0.63,0.63c0,0.35-0.28,0.63-0.63,0.63
		c-0.35,0-0.63-0.28-0.63-0.63C62.41,89.08,62.69,88.8,63.04,88.8z M61.86,86.66c0-0.35,0.28-0.63,0.63-0.63
		c0.35,0,0.63,0.28,0.63,0.63c0,0.35-0.28,0.63-0.63,0.63C62.15,87.29,61.86,87.01,61.86,86.66z M63.61,75.75
		c-0.35,0-0.63-0.28-0.63-0.63c0-0.35,0.28-0.63,0.63-0.63c0.35,0,0.63,0.28,0.63,0.63C64.23,75.47,63.95,75.75,63.61,75.75z
		 M64.37,79.03c0,0.35-0.28,0.63-0.63,0.63c-0.35,0-0.63-0.28-0.63-0.63c0-0.35,0.28-0.63,0.63-0.63
		C64.09,78.4,64.37,78.68,64.37,79.03z M63.31,76.58c0.35,0,0.63,0.28,0.63,0.63c0,0.35-0.28,0.63-0.63,0.63
		c-0.35,0-0.63-0.28-0.63-0.63C62.68,76.86,62.96,76.58,63.31,76.58z M62.91,81.99c0.35,0,0.63,0.28,0.63,0.63
		c0,0.35-0.28,0.63-0.63,0.63c-0.35,0-0.63-0.28-0.63-0.63C62.28,82.27,62.56,81.99,62.91,81.99z M62.01,81.03
		c-0.35,0-0.63-0.28-0.63-0.63c0-0.35,0.28-0.63,0.63-0.63c0.35,0,0.63,0.28,0.63,0.63C62.64,80.75,62.36,81.03,62.01,81.03z
		 M62.32,93.88c0.35,0,0.63,0.28,0.63,0.63c0,0.35-0.28,0.63-0.63,0.63s-0.63-0.28-0.63-0.63C61.7,94.16,61.98,93.88,62.32,93.88z
		 M62.8,92.6c0-0.35,0.28-0.63,0.63-0.63c0.35,0,0.63,0.28,0.63,0.63c0,0.35-0.28,0.63-0.63,0.63C63.08,93.23,62.8,92.95,62.8,92.6z
		 M63.73,85.3c0-0.35,0.28-0.63,0.63-0.63c0.35,0,0.63,0.28,0.63,0.63c0,0.35-0.28,0.63-0.63,0.63
		C64.01,85.93,63.73,85.65,63.73,85.3z M64.97,82.55c-0.35,0-0.63-0.28-0.63-0.63c0-0.35,0.28-0.63,0.63-0.63s0.63,0.28,0.63,0.63
		C65.6,82.27,65.32,82.55,64.97,82.55z M64.71,72.89c0.03,0.35-0.23,0.65-0.57,0.68c-0.35,0.03-0.65-0.23-0.68-0.57
		c-0.03-0.35,0.23-0.65,0.57-0.68C64.37,72.28,64.68,72.54,64.71,72.89z M63.25,70.34c0.35,0,0.63,0.28,0.63,0.63
		c0,0.35-0.28,0.63-0.63,0.63s-0.63-0.28-0.63-0.63C62.62,70.62,62.9,70.34,63.25,70.34z M62.16,72.41c0.35,0,0.63,0.28,0.63,0.63
		c0,0.35-0.28,0.63-0.63,0.63c-0.35,0-0.63-0.28-0.63-0.63C61.53,72.69,61.81,72.41,62.16,72.41z M61.83,76.91
		c0,0.35-0.28,0.63-0.63,0.63s-0.63-0.28-0.63-0.63c0-0.35,0.28-0.63,0.63-0.63S61.83,76.56,61.83,76.91z M60.41,70.99
		c0.35,0,0.63,0.28,0.63,0.63c0,0.35-0.28,0.63-0.63,0.63c-0.35,0-0.63-0.28-0.63-0.63C59.78,71.27,60.06,70.99,60.41,70.99z
		 M60.18,73.13c0.35,0,0.63,0.28,0.63,0.63c0,0.35-0.28,0.63-0.63,0.63s-0.63-0.28-0.63-0.63C59.55,73.42,59.83,73.13,60.18,73.13z
		 M59.18,75.99c0.35,0,0.63,0.28,0.63,0.63c0,0.35-0.28,0.63-0.63,0.63c-0.35,0-0.63-0.28-0.63-0.63
		C58.55,76.27,58.83,75.99,59.18,75.99z M59.74,82.42c-0.12,0.32-0.49,0.49-0.81,0.36c-0.32-0.12-0.49-0.49-0.36-0.81
		c0.12-0.32,0.49-0.49,0.81-0.36C59.7,81.73,59.86,82.09,59.74,82.42z M59.93,88.6c0-0.35,0.28-0.63,0.63-0.63
		c0.35,0,0.63,0.28,0.63,0.63c0,0.35-0.28,0.63-0.63,0.63C60.21,89.23,59.93,88.95,59.93,88.6z M60.44,91.58
		c0-0.35,0.28-0.63,0.63-0.63c0.35,0,0.63,0.28,0.63,0.63c0,0.35-0.28,0.63-0.63,0.63C60.73,92.2,60.44,91.92,60.44,91.58z
		 M61.51,99.18c-0.35,0-0.63-0.28-0.63-0.63c0-0.35,0.28-0.63,0.63-0.63c0.35,0,0.63,0.28,0.63,0.63
		C62.14,98.9,61.86,99.18,61.51,99.18z M62.29,96.78c0-0.35,0.28-0.63,0.63-0.63s0.63,0.28,0.63,0.63c0,0.35-0.28,0.63-0.63,0.63
		S62.29,97.13,62.29,96.78z M63.65,100.18c-0.33,0.1-0.68-0.09-0.78-0.42c-0.1-0.33,0.09-0.68,0.42-0.78s0.68,0.09,0.78,0.42
		C64.17,99.73,63.98,100.08,63.65,100.18z M64.78,95.01c-0.35,0-0.63-0.28-0.63-0.63c0-0.35,0.28-0.63,0.63-0.63
		c0.35,0,0.63,0.28,0.63,0.63C65.41,94.73,65.13,95.01,64.78,95.01z M65.32,90.33c-0.35,0-0.63-0.28-0.63-0.63s0.28-0.63,0.63-0.63
		c0.35,0,0.63,0.28,0.63,0.63S65.66,90.33,65.32,90.33z M65.36,87.9c-0.35,0-0.63-0.28-0.63-0.63c0-0.35,0.28-0.63,0.63-0.63
		c0.35,0,0.63,0.28,0.63,0.63C65.99,87.62,65.71,87.9,65.36,87.9z M65.81,79.31c-0.35,0-0.63-0.28-0.63-0.63
		c0-0.35,0.28-0.63,0.63-0.63c0.35,0,0.63,0.28,0.63,0.63C66.43,79.03,66.15,79.31,65.81,79.31z"/>
	<path class="st0" d="M69,35.53c-23.58,0-42.7,19.12-42.7,42.7s19.12,42.7,42.7,42.7s42.7-19.12,42.7-42.7S92.58,35.53,69,35.53z
		 M77.36,59.98v25.67c0,0.78-0.23,1.53-0.65,2.18l-9.37,14.21c-0.23,0.36-0.36,0.77-0.36,1.19v2.53c0,0.89-0.72,1.61-1.61,1.61
		h-5.81c-0.89,0-1.61-0.72-1.61-1.61v-2.46c0-0.42-0.12-0.83-0.36-1.19l-9.98-15.22c-0.42-0.65-0.65-1.4-0.65-2.17V57.23
		c0-1.06,0.41-2.05,1.16-2.8c0.75-0.75,1.74-1.16,2.8-1.16h8.38v-0.65h1.58v-2.75c0-0.3,0.24-0.55,0.55-0.55h1.56
		c0.3,0,0.55,0.24,0.55,0.55v0.94h0.79c0.3,0,0.55,0.24,0.55,0.55c0,0.3-0.24,0.55-0.55,0.55h-0.79v0.72h1.42v0.65l8.48,0
		c0.95,0.01,1.86,0.36,2.58,0.99c0.63,0.56,1.05,1.3,1.24,2.12h6.35c2.27,0,4.12,1.85,4.12,4.12v2.42h1.74v0.73h-0.6
		c-0.55,0.46-1.07,2.09-1.2,2.5h-3.12c-0.07-0.75-0.84-2-1.16-2.5h-0.71v-0.73h1.73v-2.42c0-0.44-0.36-0.8-0.8-0.8h-6.23
		L77.36,59.98z M92.37,84.76c-0.01,0.14-0.02,0.27-0.06,0.4l-4.11,12.4c-0.01,0.03-0.03,0.05-0.04,0.07c0.96,0.65,1.6,1.76,1.6,3.01
		c0,1.38-0.78,2.56-1.91,3.18v1.89h-3.3v-1.82c-0.23-0.11-0.44-0.25-0.64-0.4c0,0,0,0,0,0c-0.15-0.11-0.29-0.23-0.42-0.37
		c-0.04-0.04-0.1-0.08-0.14-0.12h0.04c-0.55-0.64-0.9-1.46-0.9-2.36c0-0.08,0.02-0.16,0.02-0.24h-0.65v2.04
		c0,0.23-0.19,0.42-0.42,0.42h-0.39c-0.23,0-0.42-0.19-0.42-0.42v-0.42h-2.97c-0.08,0-0.15-0.03-0.21-0.07v-1.35
		c0.06-0.04,0.13-0.07,0.21-0.07h2.97v-3.22c0-0.23,0.19-0.43,0.42-0.43h0.39c0.23,0,0.42,0.19,0.42,0.43v1.89h0.93
		c0.26-0.61,0.69-1.12,1.22-1.5c-0.02-0.05-0.06-0.09-0.07-0.14l-4.06-12.4c-0.05-0.15-0.07-0.3-0.07-0.45V67.56
		c0-0.78,0.62-1.41,1.38-1.41h9.82c0.73,0,1.32,0.59,1.37,1.32V84.76z"/>
</g>
</svg>
